<svg width="557" height="355" viewBox="0 0 557 355" fill="none" xmlns="http://www.w3.org/2000/svg">
<path d="M29.7448 46.2894V77.0684L52.6372 62.8725V60.4852L29.7448 46.2894ZM33.8373 69.7786V53.6218L47.1379 61.6789L33.8373 69.7786Z" fill="#2455F0"/>
<path d="M29.7448 217.644V248.423L52.6372 234.227V231.84L29.7448 217.644ZM33.8373 241.133V224.976L47.1379 233.033L33.8373 241.133Z" fill="#2455F0"/>
<path d="M29.7448 132.337V163.116L52.6372 148.92V146.533L29.7448 132.337ZM33.8373 155.826V139.669L47.1379 147.726L33.8373 155.826Z" fill="#2455F0"/>
<path d="M29.7448 303.691V334.47L52.6372 320.274V317.887L29.7448 303.691ZM33.8373 327.18V311.024L47.1379 319.081L33.8373 327.18Z" fill="#2455F0"/>
<path d="M299.735 44.2942V75.0732L322.627 60.8774V58.4901L299.735 44.2942ZM303.827 67.7835V51.6266L317.128 59.6837L303.827 67.7835Z" fill="#2455F0"/>
<path d="M299.735 215.649V246.428L322.627 232.232V229.845L299.735 215.649ZM303.827 239.138V222.981L317.128 231.038L303.827 239.138Z" fill="#2455F0"/>
<path d="M299.735 130.342V161.121L322.627 146.925V144.537L299.735 130.342ZM303.827 153.831V137.674L317.128 145.731L303.827 153.831Z" fill="#2455F0"/>
<path d="M299.735 301.696V332.475L322.627 318.279V315.892L299.735 301.696ZM303.827 325.185V309.028L317.128 317.086L303.827 325.185Z" fill="#2455F0"/>
<path d="M164.74 44.8577V75.6367L187.632 61.4409V59.0536L164.74 44.8577ZM168.832 68.347V52.1901L182.133 60.2472L168.832 68.347Z" fill="#2455F0"/>
<path d="M164.74 216.212V246.991L187.632 232.795V230.408L164.74 216.212ZM168.832 239.701V223.545L182.133 231.602L168.832 239.701Z" fill="#2455F0"/>
<path d="M164.74 130.905V161.684L187.632 147.488V145.101L164.74 130.905ZM168.832 154.394V138.237L182.133 146.295L168.832 154.394Z" fill="#2455F0"/>
<path d="M164.74 302.26V333.039L187.632 318.843V316.455L164.74 302.26ZM168.832 325.749V309.592L182.133 317.649L168.832 325.749Z" fill="#2455F0"/>
<path d="M434.73 42.8626V73.6416L457.622 59.4457V57.0585L434.73 42.8626ZM438.822 66.3518V50.195L452.123 58.2521L438.822 66.3518Z" fill="#2455F0"/>
<path d="M434.73 214.217V244.996L457.622 230.8V228.413L434.73 214.217ZM438.822 237.706V221.549L452.123 229.607L438.822 237.706Z" fill="#2455F0"/>
<path d="M434.73 128.909V159.688L457.622 145.493V143.105L434.73 128.909ZM438.822 152.399V136.242L452.123 144.299L438.822 152.399Z" fill="#2455F0"/>
<path d="M434.73 300.264V331.043L457.622 316.847V314.46L434.73 300.264ZM438.822 323.753V307.596L452.123 315.653L438.822 323.753Z" fill="#2455F0"/>
<path d="M97.2424 46.2894V77.0684L120.135 62.8725V60.4852L97.2424 46.2894ZM101.335 69.7786V53.6218L114.636 61.6789L101.335 69.7786Z" fill="#2455F0"/>
<path d="M97.2424 217.644V248.423L120.135 234.227V231.84L97.2424 217.644ZM101.335 241.133V224.976L114.636 233.033L101.335 241.133Z" fill="#2455F0"/>
<path d="M97.2424 132.337V163.116L120.135 148.92V146.533L97.2424 132.337ZM101.335 155.826V139.669L114.636 147.726L101.335 155.826Z" fill="#2455F0"/>
<path d="M97.2424 303.691V334.47L120.135 320.274V317.887L97.2424 303.691ZM101.335 327.18V311.024L114.636 319.081L101.335 327.18Z" fill="#2455F0"/>
<path d="M367.232 44.2942V75.0732L390.125 60.8774V58.4901L367.232 44.2942ZM371.325 67.7835V51.6266L384.626 59.6837L371.325 67.7835Z" fill="#2455F0"/>
<path d="M367.232 215.649V246.428L390.125 232.232V229.845L367.232 215.649ZM371.325 239.138V222.981L384.626 231.038L371.325 239.138Z" fill="#2455F0"/>
<path d="M367.232 130.342V161.121L390.125 146.925V144.537L367.232 130.342ZM371.325 153.831V137.674L384.626 145.731L371.325 153.831Z" fill="#2455F0"/>
<path d="M367.232 301.696V332.475L390.125 318.279V315.892L367.232 301.696ZM371.325 325.185V309.028L384.626 317.086L371.325 325.185Z" fill="#2455F0"/>
<path d="M232.238 44.8577V75.6367L255.13 61.4409V59.0536L232.238 44.8577ZM236.33 68.347V52.1901L249.631 60.2472L236.33 68.347Z" fill="#2455F0"/>
<path d="M232.238 216.212V246.991L255.13 232.795V230.408L232.238 216.212ZM236.33 239.701V223.545L249.631 231.602L236.33 239.701Z" fill="#2455F0"/>
<path d="M232.238 130.905V161.684L255.13 147.488V145.101L232.238 130.905ZM236.33 154.394V138.237L249.631 146.295L236.33 154.394Z" fill="#2455F0"/>
<path d="M232.238 302.26V333.039L255.13 318.843V316.455L232.238 302.26ZM236.33 325.749V309.592L249.631 317.649L236.33 325.749Z" fill="#2455F0"/>
<path d="M502.228 42.8626V73.6416L525.12 59.4457V57.0585L502.228 42.8626ZM506.32 66.3518V50.195L519.621 58.2521L506.32 66.3518Z" fill="#2455F0"/>
<path d="M502.228 214.217V244.996L525.12 230.8V228.413L502.228 214.217ZM506.32 237.706V221.549L519.621 229.607L506.32 237.706Z" fill="#2455F0"/>
<path d="M502.228 128.909V159.688L525.12 145.493V143.105L502.228 128.909ZM506.32 152.399V136.242L519.621 144.299L506.32 152.399Z" fill="#2455F0"/>
<path d="M502.228 300.264V331.043L525.12 316.847V314.46L502.228 300.264ZM506.32 323.753V307.596L519.621 315.653L506.32 323.753Z" fill="#2455F0"/>
<path d="M27.5793 4.14043V34.9194L50.4718 20.7236V18.3363L27.5793 4.14043ZM31.6718 27.6297V11.4728L44.9725 19.5299L31.6718 27.6297Z" fill="#2455F0"/>
<path d="M27.5793 175.495V206.274L50.4718 192.078V189.691L27.5793 175.495ZM31.6718 198.984V182.827L44.9725 190.884L31.6718 198.984Z" fill="#2455F0"/>
<path d="M27.5793 90.1873V120.966L50.4718 106.77V104.383L27.5793 90.1873ZM31.6718 113.677V97.5197L44.9725 105.577L31.6718 113.677Z" fill="#2455F0"/>
<path d="M27.5793 261.542V292.321L50.4718 278.125V275.738L27.5793 261.542ZM31.6718 285.031V268.874L44.9725 276.931L31.6718 285.031Z" fill="#2455F0"/>
<path d="M297.569 2.14532V32.9243L320.462 18.7285V16.3412L297.569 2.14532ZM301.662 25.6346V9.47771L314.963 17.5348L301.662 25.6346Z" fill="#2455F0"/>
<path d="M297.569 173.5V204.279L320.462 190.083V187.696L297.569 173.5ZM301.662 196.989V180.832L314.963 188.889L301.662 196.989Z" fill="#2455F0"/>
<path d="M297.569 88.1927V118.972L320.462 104.776V102.389L297.569 88.1927ZM301.662 111.682V95.5251L314.963 103.582L301.662 111.682Z" fill="#2455F0"/>
<path d="M297.569 259.547V290.326L320.462 276.13V273.743L297.569 259.547ZM301.662 283.036V266.88L314.963 274.937L301.662 283.036Z" fill="#2455F0"/>
<path d="M162.574 2.7083V33.4873L185.467 19.2914V16.9042L162.574 2.7083ZM166.667 26.1975V10.0407L179.968 18.0978L166.667 26.1975Z" fill="#2455F0"/>
<path d="M162.574 174.063V204.842L185.467 190.646V188.259L162.574 174.063ZM166.667 197.552V181.395L179.968 189.452L166.667 197.552Z" fill="#2455F0"/>
<path d="M162.574 88.7557V119.535L185.467 105.339V102.952L162.574 88.7557ZM166.667 112.245V96.0881L179.968 104.145L166.667 112.245Z" fill="#2455F0"/>
<path d="M162.574 260.11V290.889L185.467 276.693V274.306L162.574 260.11ZM166.667 283.599V267.443L179.968 275.5L166.667 283.599Z" fill="#2455F0"/>
<path d="M432.565 0.713675V31.4927L455.457 17.2968V14.9095L432.565 0.713675ZM436.657 24.2029V8.04607L449.958 16.1032L436.657 24.2029Z" fill="#2455F0"/>
<path d="M432.565 172.068V202.847L455.457 188.651V186.264L432.565 172.068ZM436.657 195.557V179.401L449.958 187.458L436.657 195.557Z" fill="#2455F0"/>
<path d="M432.565 86.7605V117.54L455.457 103.344V100.956L432.565 86.7605ZM436.657 110.25V94.0929L449.958 102.15L436.657 110.25Z" fill="#2455F0"/>
<path d="M432.565 258.115V288.894L455.457 274.698V272.311L432.565 258.115ZM436.657 281.604V265.447L449.958 273.505L436.657 281.604Z" fill="#2455F0"/>
<path d="M95.077 4.14043V34.9194L117.969 20.7236V18.3363L95.077 4.14043ZM99.1695 27.6297V11.4728L112.47 19.5299L99.1695 27.6297Z" fill="#2455F0"/>
<path d="M95.077 175.495V206.274L117.969 192.078V189.691L95.077 175.495ZM99.1695 198.984V182.827L112.47 190.884L99.1695 198.984Z" fill="#2455F0"/>
<path d="M95.077 90.1873V120.966L117.969 106.77V104.383L95.077 90.1873ZM99.1695 113.677V97.5197L112.47 105.577L99.1695 113.677Z" fill="#2455F0"/>
<path d="M95.077 261.542V292.321L117.969 278.125V275.738L95.077 261.542ZM99.1695 285.031V268.874L112.47 276.931L99.1695 285.031Z" fill="#2455F0"/>
<path d="M365.067 2.14532V32.9243L387.96 18.7285V16.3412L365.067 2.14532ZM369.16 25.6346V9.47771L382.46 17.5348L369.16 25.6346Z" fill="#2455F0"/>
<path d="M365.067 173.5V204.279L387.96 190.083V187.696L365.067 173.5ZM369.16 196.989V180.832L382.46 188.889L369.16 196.989Z" fill="#2455F0"/>
<path d="M365.067 88.1927V118.972L387.96 104.776V102.389L365.067 88.1927ZM369.16 111.682V95.5251L382.46 103.582L369.16 111.682Z" fill="#2455F0"/>
<path d="M365.067 259.547V290.326L387.96 276.13V273.743L365.067 259.547ZM369.16 283.036V266.88L382.46 274.937L369.16 283.036Z" fill="#2455F0"/>
<path d="M230.072 2.7083V33.4873L252.965 19.2914V16.9042L230.072 2.7083ZM234.165 26.1975V10.0407L247.465 18.0978L234.165 26.1975Z" fill="#2455F0"/>
<path d="M230.072 174.063V204.842L252.965 190.646V188.259L230.072 174.063ZM234.165 197.552V181.395L247.465 189.452L234.165 197.552Z" fill="#2455F0"/>
<path d="M230.072 88.7557V119.535L252.965 105.339V102.952L230.072 88.7557ZM234.165 112.245V96.0881L247.465 104.145L234.165 112.245Z" fill="#2455F0"/>
<path d="M230.072 260.11V290.889L252.965 276.693V274.306L230.072 260.11ZM234.165 283.599V267.443L247.465 275.5L234.165 283.599Z" fill="#2455F0"/>
<path d="M500.062 0.713675V31.4927L522.955 17.2968V14.9095L500.062 0.713675ZM504.155 24.2029V8.04607L517.455 16.1032L504.155 24.2029Z" fill="#2455F0"/>
<path d="M500.062 172.068V202.847L522.955 188.651V186.264L500.062 172.068ZM504.155 195.557V179.401L517.455 187.458L504.155 195.557Z" fill="#2455F0"/>
<path d="M500.062 86.7605V117.54L522.955 103.344V100.956L500.062 86.7605ZM504.155 110.25V94.0929L517.455 102.15L504.155 110.25Z" fill="#2455F0"/>
<path d="M500.062 258.115V288.894L522.955 274.698V272.311L500.062 258.115ZM504.155 281.604V265.447L517.455 273.505L504.155 281.604Z" fill="#2455F0"/>
<path d="M56.9679 96.9343L56.9679 66.1553L34.0755 80.3511L34.0755 82.7384L56.9679 96.9343ZM52.8754 73.445L52.8754 89.6019L39.5748 81.5448L52.8754 73.445Z" fill="#2455F0"/>
<path d="M56.9679 268.289L56.9679 237.51L34.0755 251.706L34.0755 254.093L56.9679 268.289ZM52.8754 244.8L52.8754 260.956L39.5748 252.899L52.8754 244.8Z" fill="#2455F0"/>
<path d="M56.9679 182.981L56.9679 152.202L34.0755 166.398L34.0755 168.785L56.9679 182.981ZM52.8754 159.492L52.8754 175.649L39.5748 167.592L52.8754 159.492Z" fill="#2455F0"/>
<path d="M56.9679 354.336L56.9679 323.557L34.0755 337.752L34.0755 340.14L56.9679 354.336ZM52.8754 330.846L52.8754 347.003L39.5748 338.946L52.8754 330.846Z" fill="#2455F0"/>
<path d="M326.958 94.9392L326.958 64.1602L304.066 78.356L304.066 80.7433L326.958 94.9392ZM322.866 71.4499L322.866 87.6068L309.565 79.5497L322.866 71.4499Z" fill="#2455F0"/>
<path d="M326.958 266.294L326.958 235.515L304.066 249.711L304.066 252.098L326.958 266.294ZM322.866 242.804L322.866 258.961L309.565 250.904L322.866 242.804Z" fill="#2455F0"/>
<path d="M326.958 180.986L326.958 150.207L304.066 164.403L304.066 166.79L326.958 180.986ZM322.866 157.497L322.866 173.654L309.565 165.597L322.866 157.497Z" fill="#2455F0"/>
<path d="M326.958 352.341L326.958 321.562L304.066 335.758L304.066 338.145L326.958 352.341ZM322.866 328.852L322.866 345.009L309.565 336.952L322.866 328.852Z" fill="#2455F0"/>
<path d="M191.963 95.5026L191.963 64.7236L169.071 78.9195L169.071 81.3068L191.963 95.5026ZM187.871 72.0134L187.871 88.1702L174.57 80.1131L187.871 72.0134Z" fill="#2455F0"/>
<path d="M191.963 266.857L191.963 236.078L169.071 250.274L169.071 252.661L191.963 266.857ZM187.871 243.368L187.871 259.525L174.57 251.468L187.871 243.368Z" fill="#2455F0"/>
<path d="M191.963 181.55L191.963 150.771L169.071 164.967L169.071 167.354L191.963 181.55ZM187.871 158.061L187.871 174.218L174.57 166.16L187.871 158.061Z" fill="#2455F0"/>
<path d="M191.963 352.904L191.963 322.125L169.071 336.321L169.071 338.709L191.963 352.904ZM187.871 329.415L187.871 345.572L174.57 337.515L187.871 329.415Z" fill="#2455F0"/>
<path d="M461.953 93.5075L461.953 62.7285L439.061 76.9244L439.061 79.3117L461.953 93.5075ZM457.861 70.0183L457.861 86.1751L444.56 78.118L457.861 70.0183Z" fill="#2455F0"/>
<path d="M461.953 264.862L461.953 234.083L439.061 248.279L439.061 250.666L461.953 264.862ZM457.861 241.373L457.861 257.53L444.56 249.473L457.861 241.373Z" fill="#2455F0"/>
<path d="M461.953 179.554L461.953 148.775L439.061 162.971L439.061 165.359L461.953 179.554ZM457.861 156.065L457.861 172.222L444.56 164.165L457.861 156.065Z" fill="#2455F0"/>
<path d="M461.953 350.909L461.953 320.13L439.061 334.326L439.061 336.713L461.953 350.909ZM457.861 327.42L457.861 343.576L444.56 335.519L457.861 327.42Z" fill="#2455F0"/>
<path d="M124.465 96.9343L124.465 66.1553L101.573 80.3511L101.573 82.7384L124.465 96.9343ZM120.373 73.445L120.373 89.6019L107.072 81.5448L120.373 73.445Z" fill="#2455F0"/>
<path d="M124.465 268.289L124.465 237.51L101.573 251.706L101.573 254.093L124.465 268.289ZM120.373 244.8L120.373 260.956L107.072 252.899L120.373 244.8Z" fill="#2455F0"/>
<path d="M124.465 182.981L124.465 152.202L101.573 166.398L101.573 168.785L124.465 182.981ZM120.373 159.492L120.373 175.649L107.072 167.592L120.373 159.492Z" fill="#2455F0"/>
<path d="M124.465 354.336L124.465 323.557L101.573 337.752L101.573 340.14L124.465 354.336ZM120.373 330.846L120.373 347.003L107.072 338.946L120.373 330.846Z" fill="#2455F0"/>
<path d="M394.456 94.9392L394.456 64.1602L371.563 78.356L371.563 80.7433L394.456 94.9392ZM390.363 71.4499L390.363 87.6068L377.063 79.5497L390.363 71.4499Z" fill="#2455F0"/>
<path d="M394.456 266.294L394.456 235.515L371.563 249.711L371.563 252.098L394.456 266.294ZM390.363 242.804L390.363 258.961L377.063 250.904L390.363 242.804Z" fill="#2455F0"/>
<path d="M394.456 180.986L394.456 150.207L371.563 164.403L371.563 166.79L394.456 180.986ZM390.363 157.497L390.363 173.654L377.063 165.597L390.363 157.497Z" fill="#2455F0"/>
<path d="M394.456 352.341L394.456 321.562L371.563 335.758L371.563 338.145L394.456 352.341ZM390.363 328.852L390.363 345.009L377.063 336.952L390.363 328.852Z" fill="#2455F0"/>
<path d="M259.461 95.5026L259.461 64.7236L236.568 78.9195L236.568 81.3068L259.461 95.5026ZM255.368 72.0134L255.368 88.1702L242.068 80.1131L255.368 72.0134Z" fill="#2455F0"/>
<path d="M259.461 266.857L259.461 236.078L236.568 250.274L236.568 252.661L259.461 266.857ZM255.368 243.368L255.368 259.525L242.068 251.468L255.368 243.368Z" fill="#2455F0"/>
<path d="M259.461 181.55L259.461 150.771L236.568 164.967L236.568 167.354L259.461 181.55ZM255.368 158.061L255.368 174.218L242.068 166.16L255.368 158.061Z" fill="#2455F0"/>
<path d="M259.461 352.904L259.461 322.125L236.568 336.321L236.568 338.709L259.461 352.904ZM255.368 329.415L255.368 345.572L242.068 337.515L255.368 329.415Z" fill="#2455F0"/>
<path d="M529.451 93.5075L529.451 62.7285L506.558 76.9244L506.558 79.3117L529.451 93.5075ZM525.358 70.0183L525.358 86.1751L512.058 78.118L525.358 70.0183Z" fill="#2455F0"/>
<path d="M529.451 264.862L529.451 234.083L506.558 248.279L506.558 250.666L529.451 264.862ZM525.358 241.373L525.358 257.53L512.058 249.473L525.358 241.373Z" fill="#2455F0"/>
<path d="M529.451 179.554L529.451 148.775L506.558 162.971L506.558 165.359L529.451 179.554ZM525.358 156.065L525.358 172.222L512.058 164.165L525.358 156.065Z" fill="#2455F0"/>
<path d="M529.451 350.909L529.451 320.13L506.558 334.326L506.558 336.713L529.451 350.909ZM525.358 327.42L525.358 343.576L512.058 335.519L525.358 327.42Z" fill="#2455F0"/>
<path d="M54.8025 54.7849L54.8025 24.0059L31.9101 38.2017L31.9101 40.589L54.8025 54.7849ZM50.71 31.2956L50.71 47.4525L37.4094 39.3954L50.71 31.2956Z" fill="#2455F0"/>
<path d="M54.8025 226.14L54.8025 195.361L31.9101 209.557L31.9101 211.944L54.8025 226.14ZM50.71 202.651L50.71 218.807L37.4094 210.75L50.71 202.651Z" fill="#2455F0"/>
<path d="M54.8025 140.832L54.8025 110.053L31.9101 124.249L31.9101 126.636L54.8025 140.832ZM50.71 117.343L50.71 133.5L37.4094 125.443L50.71 117.343Z" fill="#2455F0"/>
<path d="M54.8025 312.187L54.8025 281.408L31.9101 295.604L31.9101 297.991L54.8025 312.187ZM50.71 288.697L50.71 304.854L37.4094 296.797L50.71 288.697Z" fill="#2455F0"/>
<path d="M324.793 52.7897L324.793 22.0107L301.9 36.2066L301.9 38.5939L324.793 52.7897ZM320.7 29.3005L320.7 45.4574L307.4 37.4002L320.7 29.3005Z" fill="#2455F0"/>
<path d="M324.793 224.144L324.793 193.365L301.9 207.561L301.9 209.948L324.793 224.144ZM320.7 200.655L320.7 216.812L307.4 208.755L320.7 200.655Z" fill="#2455F0"/>
<path d="M324.793 138.837L324.793 108.058L301.9 122.254L301.9 124.641L324.793 138.837ZM320.7 115.348L320.7 131.505L307.4 123.448L320.7 115.348Z" fill="#2455F0"/>
<path d="M324.793 310.192L324.793 279.413L301.9 293.608L301.9 295.996L324.793 310.192ZM320.7 286.702L320.7 302.859L307.4 294.802L320.7 286.702Z" fill="#2455F0"/>
<path d="M189.798 53.3532L189.798 22.5742L166.905 36.7701L166.905 39.1574L189.798 53.3532ZM185.705 29.864L185.705 46.0208L172.404 37.9637L185.705 29.864Z" fill="#2455F0"/>
<path d="M189.798 224.708L189.798 193.929L166.905 208.125L166.905 210.512L189.798 224.708ZM185.705 201.218L185.705 217.375L172.404 209.318L185.705 201.218Z" fill="#2455F0"/>
<path d="M189.798 139.401L189.798 108.622L166.905 122.817L166.905 125.205L189.798 139.401ZM185.705 115.911L185.705 132.068L172.404 124.011L185.705 115.911Z" fill="#2455F0"/>
<path d="M189.798 310.755L189.798 279.976L166.905 294.172L166.905 296.559L189.798 310.755ZM185.705 287.266L185.705 303.423L172.404 295.366L185.705 287.266Z" fill="#2455F0"/>
<path d="M459.788 51.3581L459.788 20.5791L436.895 34.775L436.895 37.1622L459.788 51.3581ZM455.695 27.8689L455.695 44.0257L442.395 35.9686L455.695 27.8689Z" fill="#2455F0"/>
<path d="M459.788 222.713L459.788 191.934L436.895 206.129L436.895 208.517L459.788 222.713ZM455.695 199.223L455.695 215.38L442.395 207.323L455.695 199.223Z" fill="#2455F0"/>
<path d="M459.788 137.405L459.788 106.626L436.895 120.822L436.895 123.209L459.788 137.405ZM455.695 113.916L455.695 130.073L442.395 122.015L455.695 113.916Z" fill="#2455F0"/>
<path d="M459.788 308.76L459.788 277.981L436.895 292.177L436.895 294.564L459.788 308.76ZM455.695 285.271L455.695 301.428L442.395 293.37L455.695 285.271Z" fill="#2455F0"/>
<path d="M122.3 54.7849L122.3 24.0059L99.4078 38.2017L99.4078 40.589L122.3 54.7849ZM118.208 31.2956L118.208 47.4525L104.907 39.3954L118.208 31.2956Z" fill="#2455F0"/>
<path d="M122.3 226.14L122.3 195.361L99.4078 209.557L99.4078 211.944L122.3 226.14ZM118.208 202.651L118.208 218.807L104.907 210.75L118.208 202.651Z" fill="#2455F0"/>
<path d="M122.3 140.832L122.3 110.053L99.4078 124.249L99.4078 126.636L122.3 140.832ZM118.208 117.343L118.208 133.5L104.907 125.443L118.208 117.343Z" fill="#2455F0"/>
<path d="M122.3 312.187L122.3 281.408L99.4078 295.604L99.4078 297.991L122.3 312.187ZM118.208 288.697L118.208 304.854L104.907 296.797L118.208 288.697Z" fill="#2455F0"/>
<path d="M392.29 52.7897L392.29 22.0107L369.398 36.2066L369.398 38.5939L392.29 52.7897ZM388.198 29.3005L388.198 45.4574L374.897 37.4002L388.198 29.3005Z" fill="#2455F0"/>
<path d="M392.29 224.144L392.29 193.365L369.398 207.561L369.398 209.948L392.29 224.144ZM388.198 200.655L388.198 216.812L374.897 208.755L388.198 200.655Z" fill="#2455F0"/>
<path d="M392.29 138.837L392.29 108.058L369.398 122.254L369.398 124.641L392.29 138.837ZM388.198 115.348L388.198 131.505L374.897 123.448L388.198 115.348Z" fill="#2455F0"/>
<path d="M392.29 310.192L392.29 279.413L369.398 293.608L369.398 295.996L392.29 310.192ZM388.198 286.702L388.198 302.859L374.897 294.802L388.198 286.702Z" fill="#2455F0"/>
<path d="M257.295 53.3532L257.295 22.5742L234.403 36.7701L234.403 39.1574L257.295 53.3532ZM253.203 29.864L253.203 46.0208L239.902 37.9637L253.203 29.864Z" fill="#2455F0"/>
<path d="M257.295 224.708L257.295 193.929L234.403 208.125L234.403 210.512L257.295 224.708ZM253.203 201.218L253.203 217.375L239.902 209.318L253.203 201.218Z" fill="#2455F0"/>
<path d="M257.295 139.401L257.295 108.622L234.403 122.817L234.403 125.205L257.295 139.401ZM253.203 115.911L253.203 132.068L239.902 124.011L253.203 115.911Z" fill="#2455F0"/>
<path d="M257.295 310.755L257.295 279.976L234.403 294.172L234.403 296.559L257.295 310.755ZM253.203 287.266L253.203 303.423L239.902 295.366L253.203 287.266Z" fill="#2455F0"/>
<path d="M527.285 51.3581L527.285 20.5791L504.393 34.775L504.393 37.1622L527.285 51.3581ZM523.193 27.8689L523.193 44.0257L509.892 35.9686L523.193 27.8689Z" fill="#2455F0"/>
<path d="M527.285 222.713L527.285 191.934L504.393 206.129L504.393 208.517L527.285 222.713ZM523.193 199.223L523.193 215.38L509.892 207.323L523.193 199.223Z" fill="#2455F0"/>
<path d="M527.285 137.405L527.285 106.626L504.393 120.822L504.393 123.209L527.285 137.405ZM523.193 113.916L523.193 130.073L509.892 122.015L523.193 113.916Z" fill="#2455F0"/>
<path d="M527.285 308.76L527.285 277.981L504.393 292.177L504.393 294.564L527.285 308.76ZM523.193 285.271L523.193 301.428L509.892 293.37L523.193 285.271Z" fill="#2455F0"/>
<path d="M3.01404 60.485V62.8723L25.9491 77.0682V46.2892L3.01404 60.485ZM8.51333 61.6787L21.814 53.6642V69.7358L8.51333 61.6787ZM21.2171 83.4201C21.2171 84.159 21.4587 84.77 21.9418 85.2532C22.4534 85.7647 23.0929 86.0205 23.8602 86.0205C24.6275 86.0205 25.2528 85.7647 25.7359 85.2532C26.2475 84.77 26.5033 84.159 26.5033 83.4201C26.5033 82.6811 26.2475 82.0559 25.7359 81.5443C25.2528 81.0612 24.6275 80.8196 23.8602 80.8196C23.0929 80.8196 22.4534 81.0612 21.9418 81.5443C21.4587 82.0559 21.2171 82.6811 21.2171 83.4201Z" fill="#2455F0"/>
<path d="M3.01404 231.84V234.227L25.9491 248.423V217.644L3.01404 231.84ZM8.51333 233.033L21.814 225.019V241.09L8.51333 233.033ZM21.2171 254.775C21.2171 255.513 21.4587 256.125 21.9418 256.608C22.4534 257.119 23.0929 257.375 23.8602 257.375C24.6275 257.375 25.2528 257.119 25.7359 256.608C26.2475 256.125 26.5033 255.513 26.5033 254.775C26.5033 254.036 26.2475 253.41 25.7359 252.899C25.2528 252.416 24.6275 252.174 23.8602 252.174C23.0929 252.174 22.4534 252.416 21.9418 252.899C21.4587 253.41 21.2171 254.036 21.2171 254.775Z" fill="#2455F0"/>
<path d="M3.01404 146.532V148.92L25.9491 163.116V132.337L3.01404 146.532ZM8.51333 147.726L21.814 139.712V155.783L8.51333 147.726ZM21.2171 169.467C21.2171 170.206 21.4587 170.817 21.9418 171.301C22.4534 171.812 23.0929 172.068 23.8602 172.068C24.6275 172.068 25.2528 171.812 25.7359 171.301C26.2475 170.817 26.5033 170.206 26.5033 169.467C26.5033 168.729 26.2475 168.103 25.7359 167.592C25.2528 167.109 24.6275 166.867 23.8602 166.867C23.0929 166.867 22.4534 167.109 21.9418 167.592C21.4587 168.103 21.2171 168.729 21.2171 169.467Z" fill="#2455F0"/>
<path d="M3.01404 317.887V320.274L25.9491 334.47V303.691L3.01404 317.887ZM8.51333 319.081L21.814 311.066V327.138L8.51333 319.081ZM21.2171 340.822C21.2171 341.561 21.4587 342.172 21.9418 342.655C22.4534 343.167 23.0929 343.422 23.8602 343.422C24.6275 343.422 25.2528 343.167 25.7359 342.655C26.2475 342.172 26.5033 341.561 26.5033 340.822C26.5033 340.083 26.2475 339.458 25.7359 338.946C25.2528 338.463 24.6275 338.221 23.8602 338.221C23.0929 338.221 22.4534 338.463 21.9418 338.946C21.4587 339.458 21.2171 340.083 21.2171 340.822Z" fill="#2455F0"/>
<path d="M273.004 58.4904V60.8777L295.939 75.0735V44.2945L273.004 58.4904ZM278.504 59.684L291.804 51.6696V67.7411L278.504 59.684ZM291.207 81.4254C291.207 82.1644 291.449 82.7754 291.932 83.2585C292.444 83.7701 293.083 84.0259 293.85 84.0259C294.618 84.0259 295.243 83.7701 295.726 83.2585C296.238 82.7754 296.493 82.1644 296.493 81.4254C296.493 80.6865 296.238 80.0613 295.726 79.5497C295.243 79.0666 294.618 78.825 293.85 78.825C293.083 78.825 292.444 79.0666 291.932 79.5497C291.449 80.0613 291.207 80.6865 291.207 81.4254Z" fill="#2455F0"/>
<path d="M273.004 229.845V232.232L295.939 246.428V215.649L273.004 229.845ZM278.504 231.039L291.804 223.024V239.096L278.504 231.039ZM291.207 252.78C291.207 253.519 291.449 254.13 291.932 254.613C292.444 255.125 293.083 255.38 293.85 255.38C294.618 255.38 295.243 255.125 295.726 254.613C296.238 254.13 296.493 253.519 296.493 252.78C296.493 252.041 296.238 251.416 295.726 250.904C295.243 250.421 294.618 250.179 293.85 250.179C293.083 250.179 292.444 250.421 291.932 250.904C291.449 251.416 291.207 252.041 291.207 252.78Z" fill="#2455F0"/>
<path d="M273.004 144.537V146.925L295.939 161.12V130.341L273.004 144.537ZM278.504 145.731L291.804 137.716V153.788L278.504 145.731ZM291.207 167.472C291.207 168.211 291.449 168.822 291.932 169.305C292.444 169.817 293.083 170.073 293.85 170.073C294.618 170.073 295.243 169.817 295.726 169.305C296.238 168.822 296.493 168.211 296.493 167.472C296.493 166.733 296.238 166.108 295.726 165.597C295.243 165.113 294.618 164.872 293.85 164.872C293.083 164.872 292.444 165.113 291.932 165.597C291.449 166.108 291.207 166.733 291.207 167.472Z" fill="#2455F0"/>
<path d="M273.004 315.892V318.279L295.939 332.475V301.696L273.004 315.892ZM278.504 317.085L291.804 309.071V325.143L278.504 317.085ZM291.207 338.827C291.207 339.566 291.449 340.177 291.932 340.66C292.444 341.171 293.083 341.427 293.85 341.427C294.618 341.427 295.243 341.171 295.726 340.66C296.238 340.177 296.493 339.566 296.493 338.827C296.493 338.088 296.238 337.463 295.726 336.951C295.243 336.468 294.618 336.226 293.85 336.226C293.083 336.226 292.444 336.468 291.932 336.951C291.449 337.463 291.207 338.088 291.207 338.827Z" fill="#2455F0"/>
<path d="M138.009 59.0534V61.4407L160.944 75.6365V44.8575L138.009 59.0534ZM143.508 60.247L156.809 52.2325V68.3041L143.508 60.247ZM156.212 81.9884C156.212 82.7273 156.454 83.3384 156.937 83.8215C157.449 84.3331 158.088 84.5889 158.855 84.5889C159.623 84.5889 160.248 84.3331 160.731 83.8215C161.243 83.3384 161.498 82.7273 161.498 81.9884C161.498 81.2495 161.243 80.6243 160.731 80.1127C160.248 79.6296 159.623 79.388 158.855 79.388C158.088 79.388 157.449 79.6296 156.937 80.1127C156.454 80.6243 156.212 81.2495 156.212 81.9884Z" fill="#2455F0"/>
<path d="M138.009 230.408V232.795L160.944 246.991V216.212L138.009 230.408ZM143.508 231.602L156.809 223.587V239.659L143.508 231.602ZM156.212 253.343C156.212 254.082 156.454 254.693 156.937 255.176C157.449 255.688 158.088 255.943 158.855 255.943C159.623 255.943 160.248 255.688 160.731 255.176C161.243 254.693 161.498 254.082 161.498 253.343C161.498 252.604 161.243 251.979 160.731 251.467C160.248 250.984 159.623 250.742 158.855 250.742C158.088 250.742 157.449 250.984 156.937 251.467C156.454 251.979 156.212 252.604 156.212 253.343Z" fill="#2455F0"/>
<path d="M138.009 145.101V147.488L160.944 161.684V130.905L138.009 145.101ZM143.508 146.294L156.809 138.28V154.351L143.508 146.294ZM156.212 168.036C156.212 168.775 156.454 169.386 156.937 169.869C157.449 170.38 158.088 170.636 158.855 170.636C159.623 170.636 160.248 170.38 160.731 169.869C161.243 169.386 161.498 168.775 161.498 168.036C161.498 167.297 161.243 166.672 160.731 166.16C160.248 165.677 159.623 165.435 158.855 165.435C158.088 165.435 157.449 165.677 156.937 166.16C156.454 166.672 156.212 167.297 156.212 168.036Z" fill="#2455F0"/>
<path d="M138.009 316.455V318.843L160.944 333.038V302.259L138.009 316.455ZM143.508 317.649L156.809 309.634V325.706L143.508 317.649ZM156.212 339.39C156.212 340.129 156.454 340.74 156.937 341.223C157.449 341.735 158.088 341.991 158.855 341.991C159.623 341.991 160.248 341.735 160.731 341.223C161.243 340.74 161.498 340.129 161.498 339.39C161.498 338.651 161.243 338.026 160.731 337.515C160.248 337.031 159.623 336.79 158.855 336.79C158.088 336.79 157.449 337.031 156.937 337.515C156.454 338.026 156.212 338.651 156.212 339.39Z" fill="#2455F0"/>
<path d="M407.999 57.0583V59.4456L430.934 73.6414V42.8624L407.999 57.0583ZM413.499 58.2519L426.799 50.2374V66.309L413.499 58.2519ZM426.202 79.9933C426.202 80.7322 426.444 81.3433 426.927 81.8264C427.439 82.338 428.078 82.5938 428.845 82.5938C429.613 82.5938 430.238 82.338 430.721 81.8264C431.233 81.3433 431.489 80.7322 431.489 79.9933C431.489 79.2544 431.233 78.6291 430.721 78.1176C430.238 77.6344 429.613 77.3929 428.845 77.3929C428.078 77.3929 427.439 77.6344 426.927 78.1176C426.444 78.6291 426.202 79.2544 426.202 79.9933Z" fill="#2455F0"/>
<path d="M407.999 228.413V230.8L430.934 244.996V214.217L407.999 228.413ZM413.499 229.606L426.799 221.592V237.664L413.499 229.606ZM426.202 251.348C426.202 252.087 426.444 252.698 426.927 253.181C427.439 253.692 428.078 253.948 428.845 253.948C429.613 253.948 430.238 253.692 430.721 253.181C431.233 252.698 431.489 252.087 431.489 251.348C431.489 250.609 431.233 249.984 430.721 249.472C430.238 248.989 429.613 248.747 428.845 248.747C428.078 248.747 427.439 248.989 426.927 249.472C426.444 249.984 426.202 250.609 426.202 251.348Z" fill="#2455F0"/>
<path d="M407.999 143.106V145.493L430.934 159.689V128.91L407.999 143.106ZM413.499 144.299L426.799 136.285V152.356L413.499 144.299ZM426.202 166.041C426.202 166.78 426.444 167.391 426.927 167.874C427.439 168.385 428.078 168.641 428.845 168.641C429.613 168.641 430.238 168.385 430.721 167.874C431.233 167.391 431.489 166.78 431.489 166.041C431.489 165.302 431.233 164.677 430.721 164.165C430.238 163.682 429.613 163.44 428.845 163.44C428.078 163.44 427.439 163.682 426.927 164.165C426.444 164.677 426.202 165.302 426.202 166.041Z" fill="#2455F0"/>
<path d="M407.999 314.46V316.847L430.934 331.043V300.264L407.999 314.46ZM413.499 315.654L426.799 307.639V323.711L413.499 315.654ZM426.202 337.395C426.202 338.134 426.444 338.745 426.927 339.228C427.439 339.74 428.078 339.996 428.845 339.996C429.613 339.996 430.238 339.74 430.721 339.228C431.233 338.745 431.489 338.134 431.489 337.395C431.489 336.656 431.233 336.031 430.721 335.519C430.238 335.036 429.613 334.795 428.845 334.795C428.078 334.795 427.439 335.036 426.927 335.519C426.444 336.031 426.202 336.656 426.202 337.395Z" fill="#2455F0"/>
<path d="M70.5117 60.485V62.8723L93.4468 77.0682V46.2892L70.5117 60.485ZM76.011 61.6787L89.3116 53.6642V69.7358L76.011 61.6787ZM88.7148 83.4201C88.7148 84.159 88.9564 84.77 89.4395 85.2532C89.9511 85.7647 90.5905 86.0205 91.3579 86.0205C92.1252 86.0205 92.7505 85.7647 93.2336 85.2532C93.7452 84.77 94.001 84.159 94.001 83.4201C94.001 82.6811 93.7452 82.0559 93.2336 81.5443C92.7505 81.0612 92.1252 80.8196 91.3579 80.8196C90.5905 80.8196 89.9511 81.0612 89.4395 81.5443C88.9564 82.0559 88.7148 82.6811 88.7148 83.4201Z" fill="#2455F0"/>
<path d="M70.5117 231.84V234.227L93.4468 248.423V217.644L70.5117 231.84ZM76.011 233.033L89.3116 225.019V241.09L76.011 233.033ZM88.7148 254.775C88.7148 255.513 88.9564 256.125 89.4395 256.608C89.9511 257.119 90.5905 257.375 91.3579 257.375C92.1252 257.375 92.7505 257.119 93.2336 256.608C93.7452 256.125 94.001 255.513 94.001 254.775C94.001 254.036 93.7452 253.41 93.2336 252.899C92.7505 252.416 92.1252 252.174 91.3579 252.174C90.5905 252.174 89.9511 252.416 89.4395 252.899C88.9564 253.41 88.7148 254.036 88.7148 254.775Z" fill="#2455F0"/>
<path d="M70.5117 146.532V148.92L93.4468 163.116V132.337L70.5117 146.532ZM76.011 147.726L89.3116 139.712V155.783L76.011 147.726ZM88.7148 169.467C88.7148 170.206 88.9564 170.817 89.4395 171.301C89.9511 171.812 90.5905 172.068 91.3579 172.068C92.1252 172.068 92.7505 171.812 93.2336 171.301C93.7452 170.817 94.001 170.206 94.001 169.467C94.001 168.729 93.7452 168.103 93.2336 167.592C92.7505 167.109 92.1252 166.867 91.3579 166.867C90.5905 166.867 89.9511 167.109 89.4395 167.592C88.9564 168.103 88.7148 168.729 88.7148 169.467Z" fill="#2455F0"/>
<path d="M70.5117 317.887V320.274L93.4468 334.47V303.691L70.5117 317.887ZM76.011 319.081L89.3116 311.066V327.138L76.011 319.081ZM88.7148 340.822C88.7148 341.561 88.9564 342.172 89.4395 342.655C89.9511 343.167 90.5905 343.422 91.3579 343.422C92.1252 343.422 92.7505 343.167 93.2336 342.655C93.7452 342.172 94.001 341.561 94.001 340.822C94.001 340.083 93.7452 339.458 93.2336 338.946C92.7505 338.463 92.1252 338.221 91.3579 338.221C90.5905 338.221 89.9511 338.463 89.4395 338.946C88.9564 339.458 88.7148 340.083 88.7148 340.822Z" fill="#2455F0"/>
<path d="M340.502 58.4904V60.8777L363.437 75.0735V44.2945L340.502 58.4904ZM346.001 59.684L359.302 51.6696V67.7411L346.001 59.684ZM358.705 81.4254C358.705 82.1644 358.946 82.7754 359.43 83.2585C359.941 83.7701 360.581 84.0259 361.348 84.0259C362.115 84.0259 362.741 83.7701 363.224 83.2585C363.735 82.7754 363.991 82.1644 363.991 81.4254C363.991 80.6865 363.735 80.0613 363.224 79.5497C362.741 79.0666 362.115 78.825 361.348 78.825C360.581 78.825 359.941 79.0666 359.43 79.5497C358.946 80.0613 358.705 80.6865 358.705 81.4254Z" fill="#2455F0"/>
<path d="M340.502 229.845V232.232L363.437 246.428V215.649L340.502 229.845ZM346.001 231.039L359.302 223.024V239.096L346.001 231.039ZM358.705 252.78C358.705 253.519 358.946 254.13 359.43 254.613C359.941 255.125 360.581 255.38 361.348 255.38C362.115 255.38 362.741 255.125 363.224 254.613C363.735 254.13 363.991 253.519 363.991 252.78C363.991 252.041 363.735 251.416 363.224 250.904C362.741 250.421 362.115 250.179 361.348 250.179C360.581 250.179 359.941 250.421 359.43 250.904C358.946 251.416 358.705 252.041 358.705 252.78Z" fill="#2455F0"/>
<path d="M340.502 144.537V146.925L363.437 161.12V130.341L340.502 144.537ZM346.001 145.731L359.302 137.716V153.788L346.001 145.731ZM358.705 167.472C358.705 168.211 358.946 168.822 359.43 169.305C359.941 169.817 360.581 170.073 361.348 170.073C362.115 170.073 362.741 169.817 363.224 169.305C363.735 168.822 363.991 168.211 363.991 167.472C363.991 166.733 363.735 166.108 363.224 165.597C362.741 165.113 362.115 164.872 361.348 164.872C360.581 164.872 359.941 165.113 359.43 165.597C358.946 166.108 358.705 166.733 358.705 167.472Z" fill="#2455F0"/>
<path d="M340.502 315.892V318.279L363.437 332.475V301.696L340.502 315.892ZM346.001 317.085L359.302 309.071V325.143L346.001 317.085ZM358.705 338.827C358.705 339.566 358.946 340.177 359.43 340.66C359.941 341.171 360.581 341.427 361.348 341.427C362.115 341.427 362.741 341.171 363.224 340.66C363.735 340.177 363.991 339.566 363.991 338.827C363.991 338.088 363.735 337.463 363.224 336.951C362.741 336.468 362.115 336.226 361.348 336.226C360.581 336.226 359.941 336.468 359.43 336.951C358.946 337.463 358.705 338.088 358.705 338.827Z" fill="#2455F0"/>
<path d="M205.507 59.0534V61.4407L228.442 75.6365V44.8575L205.507 59.0534ZM211.006 60.247L224.307 52.2325V68.3041L211.006 60.247ZM223.71 81.9884C223.71 82.7273 223.952 83.3384 224.435 83.8215C224.946 84.3331 225.586 84.5889 226.353 84.5889C227.12 84.5889 227.746 84.3331 228.229 83.8215C228.74 83.3384 228.996 82.7273 228.996 81.9884C228.996 81.2495 228.74 80.6243 228.229 80.1127C227.746 79.6296 227.12 79.388 226.353 79.388C225.586 79.388 224.946 79.6296 224.435 80.1127C223.952 80.6243 223.71 81.2495 223.71 81.9884Z" fill="#2455F0"/>
<path d="M205.507 230.408V232.795L228.442 246.991V216.212L205.507 230.408ZM211.006 231.602L224.307 223.587V239.659L211.006 231.602ZM223.71 253.343C223.71 254.082 223.952 254.693 224.435 255.176C224.946 255.688 225.586 255.943 226.353 255.943C227.12 255.943 227.746 255.688 228.229 255.176C228.74 254.693 228.996 254.082 228.996 253.343C228.996 252.604 228.74 251.979 228.229 251.467C227.746 250.984 227.12 250.742 226.353 250.742C225.586 250.742 224.946 250.984 224.435 251.467C223.952 251.979 223.71 252.604 223.71 253.343Z" fill="#2455F0"/>
<path d="M205.507 145.101V147.488L228.442 161.684V130.905L205.507 145.101ZM211.006 146.294L224.307 138.28V154.351L211.006 146.294ZM223.71 168.036C223.71 168.775 223.952 169.386 224.435 169.869C224.946 170.38 225.586 170.636 226.353 170.636C227.12 170.636 227.746 170.38 228.229 169.869C228.74 169.386 228.996 168.775 228.996 168.036C228.996 167.297 228.74 166.672 228.229 166.16C227.746 165.677 227.12 165.435 226.353 165.435C225.586 165.435 224.946 165.677 224.435 166.16C223.952 166.672 223.71 167.297 223.71 168.036Z" fill="#2455F0"/>
<path d="M205.507 316.455V318.843L228.442 333.038V302.259L205.507 316.455ZM211.006 317.649L224.307 309.634V325.706L211.006 317.649ZM223.71 339.39C223.71 340.129 223.952 340.74 224.435 341.223C224.946 341.735 225.586 341.991 226.353 341.991C227.12 341.991 227.746 341.735 228.229 341.223C228.74 340.74 228.996 340.129 228.996 339.39C228.996 338.651 228.74 338.026 228.229 337.515C227.746 337.031 227.12 336.79 226.353 336.79C225.586 336.79 224.946 337.031 224.435 337.515C223.952 338.026 223.71 338.651 223.71 339.39Z" fill="#2455F0"/>
<path d="M475.497 57.0583V59.4456L498.432 73.6414V42.8624L475.497 57.0583ZM480.996 58.2519L494.297 50.2374V66.309L480.996 58.2519ZM493.7 79.9933C493.7 80.7322 493.942 81.3433 494.425 81.8264C494.936 82.338 495.576 82.5938 496.343 82.5938C497.11 82.5938 497.736 82.338 498.219 81.8264C498.73 81.3433 498.986 80.7322 498.986 79.9933C498.986 79.2544 498.73 78.6291 498.219 78.1176C497.736 77.6344 497.11 77.3929 496.343 77.3929C495.576 77.3929 494.936 77.6344 494.425 78.1176C493.942 78.6291 493.7 79.2544 493.7 79.9933Z" fill="#2455F0"/>
<path d="M475.497 228.413V230.8L498.432 244.996V214.217L475.497 228.413ZM480.996 229.606L494.297 221.592V237.664L480.996 229.606ZM493.7 251.348C493.7 252.087 493.942 252.698 494.425 253.181C494.936 253.692 495.576 253.948 496.343 253.948C497.11 253.948 497.736 253.692 498.219 253.181C498.73 252.698 498.986 252.087 498.986 251.348C498.986 250.609 498.73 249.984 498.219 249.472C497.736 248.989 497.11 248.747 496.343 248.747C495.576 248.747 494.936 248.989 494.425 249.472C493.942 249.984 493.7 250.609 493.7 251.348Z" fill="#2455F0"/>
<path d="M475.497 143.106V145.493L498.432 159.689V128.91L475.497 143.106ZM480.996 144.299L494.297 136.285V152.356L480.996 144.299ZM493.7 166.041C493.7 166.78 493.942 167.391 494.425 167.874C494.936 168.385 495.576 168.641 496.343 168.641C497.11 168.641 497.736 168.385 498.219 167.874C498.73 167.391 498.986 166.78 498.986 166.041C498.986 165.302 498.73 164.677 498.219 164.165C497.736 163.682 497.11 163.44 496.343 163.44C495.576 163.44 494.936 163.682 494.425 164.165C493.942 164.677 493.7 165.302 493.7 166.041Z" fill="#2455F0"/>
<path d="M475.497 314.46V316.847L498.432 331.043V300.264L475.497 314.46ZM480.996 315.654L494.297 307.639V323.711L480.996 315.654ZM493.7 337.395C493.7 338.134 493.942 338.745 494.425 339.228C494.936 339.74 495.576 339.996 496.343 339.996C497.11 339.996 497.736 339.74 498.219 339.228C498.73 338.745 498.986 338.134 498.986 337.395C498.986 336.656 498.73 336.031 498.219 335.519C497.736 335.036 497.11 334.795 496.343 334.795C495.576 334.795 494.936 335.036 494.425 335.519C493.942 336.031 493.7 336.656 493.7 337.395Z" fill="#2455F0"/>
<path d="M0.848633 18.3361V20.7234L23.7837 34.9192V4.14024L0.848633 18.3361ZM6.34793 19.5297L19.6485 11.5153V27.5868L6.34793 19.5297ZM19.0517 41.2711C19.0517 42.0101 19.2933 42.6211 19.7764 43.1042C20.288 43.6158 20.9275 43.8716 21.6948 43.8716C22.4621 43.8716 23.0874 43.6158 23.5705 43.1042C24.0821 42.6211 24.3379 42.0101 24.3379 41.2711C24.3379 40.5322 24.0821 39.907 23.5705 39.3954C23.0874 38.9123 22.4621 38.6707 21.6948 38.6707C20.9275 38.6707 20.288 38.9123 19.7764 39.3954C19.2933 39.907 19.0517 40.5322 19.0517 41.2711Z" fill="#2455F0"/>
<path d="M0.848633 189.691V192.078L23.7837 206.274V175.495L0.848633 189.691ZM6.34793 190.884L19.6485 182.87V198.941L6.34793 190.884ZM19.0517 212.626C19.0517 213.365 19.2933 213.976 19.7764 214.459C20.288 214.97 20.9275 215.226 21.6948 215.226C22.4621 215.226 23.0874 214.97 23.5705 214.459C24.0821 213.976 24.3379 213.365 24.3379 212.626C24.3379 211.887 24.0821 211.261 23.5705 210.75C23.0874 210.267 22.4621 210.025 21.6948 210.025C20.9275 210.025 20.288 210.267 19.7764 210.75C19.2933 211.261 19.0517 211.887 19.0517 212.626Z" fill="#2455F0"/>
<path d="M0.848633 104.383V106.771L23.7837 120.967V90.1876L0.848633 104.383ZM6.34793 105.577L19.6485 97.5626V113.634L6.34793 105.577ZM19.0517 127.319C19.0517 128.057 19.2933 128.668 19.7764 129.152C20.288 129.663 20.9275 129.919 21.6948 129.919C22.4621 129.919 23.0874 129.663 23.5705 129.152C24.0821 128.668 24.3379 128.057 24.3379 127.319C24.3379 126.58 24.0821 125.954 23.5705 125.443C23.0874 124.96 22.4621 124.718 21.6948 124.718C20.9275 124.718 20.288 124.96 19.7764 125.443C19.2933 125.954 19.0517 126.58 19.0517 127.319Z" fill="#2455F0"/>
<path d="M0.848633 275.738V278.125L23.7837 292.321V261.542L0.848633 275.738ZM6.34793 276.932L19.6485 268.917V284.989L6.34793 276.932ZM19.0517 298.673C19.0517 299.412 19.2933 300.023 19.7764 300.506C20.288 301.018 20.9275 301.273 21.6948 301.273C22.4621 301.273 23.0874 301.018 23.5705 300.506C24.0821 300.023 24.3379 299.412 24.3379 298.673C24.3379 297.934 24.0821 297.309 23.5705 296.797C23.0874 296.314 22.4621 296.073 21.6948 296.073C20.9275 296.073 20.288 296.314 19.7764 296.797C19.2933 297.309 19.0517 297.934 19.0517 298.673Z" fill="#2455F0"/>
<path d="M270.839 16.341V18.7283L293.774 32.9241V2.14512L270.839 16.341ZM276.338 17.5346L289.639 9.52015V25.5917L276.338 17.5346ZM289.042 39.276C289.042 40.0149 289.284 40.626 289.767 41.1091C290.278 41.6207 290.918 41.8765 291.685 41.8765C292.452 41.8765 293.078 41.6207 293.561 41.1091C294.072 40.626 294.328 40.0149 294.328 39.276C294.328 38.5371 294.072 37.9119 293.561 37.4003C293.078 36.9172 292.452 36.6756 291.685 36.6756C290.918 36.6756 290.278 36.9172 289.767 37.4003C289.284 37.9119 289.042 38.5371 289.042 39.276Z" fill="#2455F0"/>
<path d="M270.839 187.695V190.083L293.774 204.279V173.5L270.839 187.695ZM276.338 188.889L289.639 180.875V196.946L276.338 188.889ZM289.042 210.631C289.042 211.369 289.284 211.98 289.767 212.464C290.278 212.975 290.918 213.231 291.685 213.231C292.452 213.231 293.078 212.975 293.561 212.464C294.072 211.98 294.328 211.369 294.328 210.631C294.328 209.892 294.072 209.266 293.561 208.755C293.078 208.272 292.452 208.03 291.685 208.03C290.918 208.03 290.278 208.272 289.767 208.755C289.284 209.266 289.042 209.892 289.042 210.631Z" fill="#2455F0"/>
<path d="M270.839 102.388V104.776L293.774 118.971V88.1925L270.839 102.388ZM276.338 103.582L289.639 95.5675V111.639L276.338 103.582ZM289.042 125.323C289.042 126.062 289.284 126.673 289.767 127.156C290.278 127.668 290.918 127.924 291.685 127.924C292.452 127.924 293.078 127.668 293.561 127.156C294.072 126.673 294.328 126.062 294.328 125.323C294.328 124.584 294.072 123.959 293.561 123.448C293.078 122.965 292.452 122.723 291.685 122.723C290.918 122.723 290.278 122.965 289.767 123.448C289.284 123.959 289.042 124.584 289.042 125.323Z" fill="#2455F0"/>
<path d="M270.839 273.743V276.13L293.774 290.326V259.547L270.839 273.743ZM276.338 274.936L289.639 266.922V282.994L276.338 274.936ZM289.042 296.678C289.042 297.417 289.284 298.028 289.767 298.511C290.278 299.023 290.918 299.278 291.685 299.278C292.452 299.278 293.078 299.023 293.561 298.511C294.072 298.028 294.328 297.417 294.328 296.678C294.328 295.939 294.072 295.314 293.561 294.802C293.078 294.319 292.452 294.077 291.685 294.077C290.918 294.077 290.278 294.319 289.767 294.802C289.284 295.314 289.042 295.939 289.042 296.678Z" fill="#2455F0"/>
<path d="M135.844 16.9045V19.2917L158.779 33.4876V2.7086L135.844 16.9045ZM141.343 18.0981L154.644 10.0836V26.1552L141.343 18.0981ZM154.047 39.8395C154.047 40.5784 154.288 41.1895 154.772 41.6726C155.283 42.1842 155.923 42.4399 156.69 42.4399C157.457 42.4399 158.083 42.1842 158.566 41.6726C159.077 41.1895 159.333 40.5784 159.333 39.8395C159.333 39.1006 159.077 38.4753 158.566 37.9638C158.083 37.4806 157.457 37.2391 156.69 37.2391C155.923 37.2391 155.283 37.4806 154.772 37.9638C154.288 38.4753 154.047 39.1006 154.047 39.8395Z" fill="#2455F0"/>
<path d="M135.844 188.259V190.646L158.779 204.842V174.063L135.844 188.259ZM141.343 189.453L154.644 181.438V197.51L141.343 189.453ZM154.047 211.194C154.047 211.933 154.288 212.544 154.772 213.027C155.283 213.539 155.923 213.794 156.69 213.794C157.457 213.794 158.083 213.539 158.566 213.027C159.077 212.544 159.333 211.933 159.333 211.194C159.333 210.455 159.077 209.83 158.566 209.318C158.083 208.835 157.457 208.594 156.69 208.594C155.923 208.594 155.283 208.835 154.772 209.318C154.288 209.83 154.047 210.455 154.047 211.194Z" fill="#2455F0"/>
<path d="M135.844 102.952V105.339L158.779 119.535V88.756L135.844 102.952ZM141.343 104.145L154.644 96.131V112.203L141.343 104.145ZM154.047 125.887C154.047 126.626 154.288 127.237 154.772 127.72C155.283 128.232 155.923 128.487 156.69 128.487C157.457 128.487 158.083 128.232 158.566 127.72C159.077 127.237 159.333 126.626 159.333 125.887C159.333 125.148 159.077 124.523 158.566 124.011C158.083 123.528 157.457 123.286 156.69 123.286C155.923 123.286 155.283 123.528 154.772 124.011C154.288 124.523 154.047 125.148 154.047 125.887Z" fill="#2455F0"/>
<path d="M135.844 274.306V276.694L158.779 290.889V260.11L135.844 274.306ZM141.343 275.5L154.644 267.485V283.557L141.343 275.5ZM154.047 297.241C154.047 297.98 154.288 298.591 154.772 299.074C155.283 299.586 155.923 299.842 156.69 299.842C157.457 299.842 158.083 299.586 158.566 299.074C159.077 298.591 159.333 297.98 159.333 297.241C159.333 296.502 159.077 295.877 158.566 295.366C158.083 294.882 157.457 294.641 156.69 294.641C155.923 294.641 155.283 294.882 154.772 295.366C154.288 295.877 154.047 296.502 154.047 297.241Z" fill="#2455F0"/>
<path d="M405.834 14.9093V17.2966L428.769 31.4925V0.713482L405.834 14.9093ZM411.333 16.103L424.634 8.0885V24.1601L411.333 16.103ZM424.037 37.8444C424.037 38.5833 424.279 39.1943 424.762 39.6775C425.273 40.189 425.913 40.4448 426.68 40.4448C427.447 40.4448 428.073 40.189 428.556 39.6775C429.067 39.1943 429.323 38.5833 429.323 37.8444C429.323 37.1055 429.067 36.4802 428.556 35.9687C428.073 35.4855 427.447 35.2439 426.68 35.2439C425.913 35.2439 425.273 35.4855 424.762 35.9687C424.279 36.4802 424.037 37.1055 424.037 37.8444Z" fill="#2455F0"/>
<path d="M405.834 186.264V188.651L428.769 202.847V172.068L405.834 186.264ZM411.333 187.457L424.634 179.443V195.515L411.333 187.457ZM424.037 209.199C424.037 209.938 424.279 210.549 424.762 211.032C425.273 211.544 425.913 211.799 426.68 211.799C427.447 211.799 428.073 211.544 428.556 211.032C429.067 210.549 429.323 209.938 429.323 209.199C429.323 208.46 429.067 207.835 428.556 207.323C428.073 206.84 427.447 206.598 426.68 206.598C425.913 206.598 425.273 206.84 424.762 207.323C424.279 207.835 424.037 208.46 424.037 209.199Z" fill="#2455F0"/>
<path d="M405.834 100.956V103.344L428.769 117.539V86.7604L405.834 100.956ZM411.333 102.15L424.634 94.1354V110.207L411.333 102.15ZM424.037 123.891C424.037 124.63 424.279 125.241 424.762 125.724C425.273 126.236 425.913 126.492 426.68 126.492C427.447 126.492 428.073 126.236 428.556 125.724C429.067 125.241 429.323 124.63 429.323 123.891C429.323 123.152 429.067 122.527 428.556 122.016C428.073 121.532 427.447 121.291 426.68 121.291C425.913 121.291 425.273 121.532 424.762 122.016C424.279 122.527 424.037 123.152 424.037 123.891Z" fill="#2455F0"/>
<path d="M405.834 272.311V274.698L428.769 288.894V258.115L405.834 272.311ZM411.333 273.504L424.634 265.49V281.561L411.333 273.504ZM424.037 295.246C424.037 295.985 424.279 296.596 424.762 297.079C425.273 297.59 425.913 297.846 426.68 297.846C427.447 297.846 428.073 297.59 428.556 297.079C429.067 296.596 429.323 295.985 429.323 295.246C429.323 294.507 429.067 293.882 428.556 293.37C428.073 292.887 427.447 292.645 426.68 292.645C425.913 292.645 425.273 292.887 424.762 293.37C424.279 293.882 424.037 294.507 424.037 295.246Z" fill="#2455F0"/>
<path d="M68.3463 18.3361V20.7234L91.2814 34.9192V4.14024L68.3463 18.3361ZM73.8456 19.5297L87.1462 11.5153V27.5868L73.8456 19.5297ZM86.5494 41.2711C86.5494 42.0101 86.791 42.6211 87.2741 43.1042C87.7857 43.6158 88.4251 43.8716 89.1925 43.8716C89.9598 43.8716 90.5851 43.6158 91.0682 43.1042C91.5798 42.6211 91.8355 42.0101 91.8355 41.2711C91.8355 40.5322 91.5798 39.907 91.0682 39.3954C90.5851 38.9123 89.9598 38.6707 89.1925 38.6707C88.4251 38.6707 87.7857 38.9123 87.2741 39.3954C86.791 39.907 86.5494 40.5322 86.5494 41.2711Z" fill="#2455F0"/>
<path d="M68.3463 189.691V192.078L91.2814 206.274V175.495L68.3463 189.691ZM73.8456 190.884L87.1462 182.87V198.941L73.8456 190.884ZM86.5494 212.626C86.5494 213.365 86.791 213.976 87.2741 214.459C87.7857 214.97 88.4251 215.226 89.1925 215.226C89.9598 215.226 90.5851 214.97 91.0682 214.459C91.5798 213.976 91.8355 213.365 91.8355 212.626C91.8355 211.887 91.5798 211.261 91.0682 210.75C90.5851 210.267 89.9598 210.025 89.1925 210.025C88.4251 210.025 87.7857 210.267 87.2741 210.75C86.791 211.261 86.5494 211.887 86.5494 212.626Z" fill="#2455F0"/>
<path d="M68.3463 104.383V106.771L91.2814 120.967V90.1876L68.3463 104.383ZM73.8456 105.577L87.1462 97.5626V113.634L73.8456 105.577ZM86.5494 127.319C86.5494 128.057 86.791 128.668 87.2741 129.152C87.7857 129.663 88.4251 129.919 89.1925 129.919C89.9598 129.919 90.5851 129.663 91.0682 129.152C91.5798 128.668 91.8355 128.057 91.8355 127.319C91.8355 126.58 91.5798 125.954 91.0682 125.443C90.5851 124.96 89.9598 124.718 89.1925 124.718C88.4251 124.718 87.7857 124.96 87.2741 125.443C86.791 125.954 86.5494 126.58 86.5494 127.319Z" fill="#2455F0"/>
<path d="M68.3463 275.738V278.125L91.2814 292.321V261.542L68.3463 275.738ZM73.8456 276.932L87.1462 268.917V284.989L73.8456 276.932ZM86.5494 298.673C86.5494 299.412 86.791 300.023 87.2741 300.506C87.7857 301.018 88.4251 301.273 89.1925 301.273C89.9598 301.273 90.5851 301.018 91.0682 300.506C91.5798 300.023 91.8355 299.412 91.8355 298.673C91.8355 297.934 91.5798 297.309 91.0682 296.797C90.5851 296.314 89.9598 296.073 89.1925 296.073C88.4251 296.073 87.7857 296.314 87.2741 296.797C86.791 297.309 86.5494 297.934 86.5494 298.673Z" fill="#2455F0"/>
<path d="M338.336 16.341V18.7283L361.271 32.9241V2.14512L338.336 16.341ZM343.836 17.5346L357.136 9.52015V25.5917L343.836 17.5346ZM356.54 39.276C356.54 40.0149 356.781 40.626 357.264 41.1091C357.776 41.6207 358.415 41.8765 359.183 41.8765C359.95 41.8765 360.575 41.6207 361.058 41.1091C361.57 40.626 361.826 40.0149 361.826 39.276C361.826 38.5371 361.57 37.9119 361.058 37.4003C360.575 36.9172 359.95 36.6756 359.183 36.6756C358.415 36.6756 357.776 36.9172 357.264 37.4003C356.781 37.9119 356.54 38.5371 356.54 39.276Z" fill="#2455F0"/>
<path d="M338.336 187.695V190.083L361.271 204.279V173.5L338.336 187.695ZM343.836 188.889L357.136 180.875V196.946L343.836 188.889ZM356.54 210.631C356.54 211.369 356.781 211.98 357.264 212.464C357.776 212.975 358.415 213.231 359.183 213.231C359.95 213.231 360.575 212.975 361.058 212.464C361.57 211.98 361.826 211.369 361.826 210.631C361.826 209.892 361.57 209.266 361.058 208.755C360.575 208.272 359.95 208.03 359.183 208.03C358.415 208.03 357.776 208.272 357.264 208.755C356.781 209.266 356.54 209.892 356.54 210.631Z" fill="#2455F0"/>
<path d="M338.336 102.388V104.776L361.271 118.971V88.1925L338.336 102.388ZM343.836 103.582L357.136 95.5675V111.639L343.836 103.582ZM356.54 125.323C356.54 126.062 356.781 126.673 357.264 127.156C357.776 127.668 358.415 127.924 359.183 127.924C359.95 127.924 360.575 127.668 361.058 127.156C361.57 126.673 361.826 126.062 361.826 125.323C361.826 124.584 361.57 123.959 361.058 123.448C360.575 122.965 359.95 122.723 359.183 122.723C358.415 122.723 357.776 122.965 357.264 123.448C356.781 123.959 356.54 124.584 356.54 125.323Z" fill="#2455F0"/>
<path d="M338.336 273.743V276.13L361.271 290.326V259.547L338.336 273.743ZM343.836 274.936L357.136 266.922V282.994L343.836 274.936ZM356.54 296.678C356.54 297.417 356.781 298.028 357.264 298.511C357.776 299.023 358.415 299.278 359.183 299.278C359.95 299.278 360.575 299.023 361.058 298.511C361.57 298.028 361.826 297.417 361.826 296.678C361.826 295.939 361.57 295.314 361.058 294.802C360.575 294.319 359.95 294.077 359.183 294.077C358.415 294.077 357.776 294.319 357.264 294.802C356.781 295.314 356.54 295.939 356.54 296.678Z" fill="#2455F0"/>
<path d="M203.341 16.9045V19.2917L226.276 33.4876V2.7086L203.341 16.9045ZM208.841 18.0981L222.141 10.0836V26.1552L208.841 18.0981ZM221.545 39.8395C221.545 40.5784 221.786 41.1895 222.269 41.6726C222.781 42.1842 223.42 42.4399 224.188 42.4399C224.955 42.4399 225.58 42.1842 226.063 41.6726C226.575 41.1895 226.831 40.5784 226.831 39.8395C226.831 39.1006 226.575 38.4753 226.063 37.9638C225.58 37.4806 224.955 37.2391 224.188 37.2391C223.42 37.2391 222.781 37.4806 222.269 37.9638C221.786 38.4753 221.545 39.1006 221.545 39.8395Z" fill="#2455F0"/>
<path d="M203.341 188.259V190.646L226.276 204.842V174.063L203.341 188.259ZM208.841 189.453L222.141 181.438V197.51L208.841 189.453ZM221.545 211.194C221.545 211.933 221.786 212.544 222.269 213.027C222.781 213.539 223.42 213.794 224.188 213.794C224.955 213.794 225.58 213.539 226.063 213.027C226.575 212.544 226.831 211.933 226.831 211.194C226.831 210.455 226.575 209.83 226.063 209.318C225.58 208.835 224.955 208.594 224.188 208.594C223.42 208.594 222.781 208.835 222.269 209.318C221.786 209.83 221.545 210.455 221.545 211.194Z" fill="#2455F0"/>
<path d="M203.341 102.952V105.339L226.276 119.535V88.756L203.341 102.952ZM208.841 104.145L222.141 96.131V112.203L208.841 104.145ZM221.545 125.887C221.545 126.626 221.786 127.237 222.269 127.72C222.781 128.232 223.42 128.487 224.188 128.487C224.955 128.487 225.58 128.232 226.063 127.72C226.575 127.237 226.831 126.626 226.831 125.887C226.831 125.148 226.575 124.523 226.063 124.011C225.58 123.528 224.955 123.286 224.188 123.286C223.42 123.286 222.781 123.528 222.269 124.011C221.786 124.523 221.545 125.148 221.545 125.887Z" fill="#2455F0"/>
<path d="M203.341 274.306V276.694L226.276 290.889V260.11L203.341 274.306ZM208.841 275.5L222.141 267.485V283.557L208.841 275.5ZM221.545 297.241C221.545 297.98 221.786 298.591 222.269 299.074C222.781 299.586 223.42 299.842 224.188 299.842C224.955 299.842 225.58 299.586 226.063 299.074C226.575 298.591 226.831 297.98 226.831 297.241C226.831 296.502 226.575 295.877 226.063 295.366C225.58 294.882 224.955 294.641 224.188 294.641C223.42 294.641 222.781 294.882 222.269 295.366C221.786 295.877 221.545 296.502 221.545 297.241Z" fill="#2455F0"/>
<path d="M473.332 14.9093V17.2966L496.267 31.4925V0.713482L473.332 14.9093ZM478.831 16.103L492.132 8.0885V24.1601L478.831 16.103ZM491.535 37.8444C491.535 38.5833 491.776 39.1943 492.259 39.6775C492.771 40.189 493.41 40.4448 494.178 40.4448C494.945 40.4448 495.57 40.189 496.053 39.6775C496.565 39.1943 496.821 38.5833 496.821 37.8444C496.821 37.1055 496.565 36.4802 496.053 35.9687C495.57 35.4855 494.945 35.2439 494.178 35.2439C493.41 35.2439 492.771 35.4855 492.259 35.9687C491.776 36.4802 491.535 37.1055 491.535 37.8444Z" fill="#2455F0"/>
<path d="M473.332 186.264V188.651L496.267 202.847V172.068L473.332 186.264ZM478.831 187.457L492.132 179.443V195.515L478.831 187.457ZM491.535 209.199C491.535 209.938 491.776 210.549 492.259 211.032C492.771 211.544 493.41 211.799 494.178 211.799C494.945 211.799 495.57 211.544 496.053 211.032C496.565 210.549 496.821 209.938 496.821 209.199C496.821 208.46 496.565 207.835 496.053 207.323C495.57 206.84 494.945 206.598 494.178 206.598C493.41 206.598 492.771 206.84 492.259 207.323C491.776 207.835 491.535 208.46 491.535 209.199Z" fill="#2455F0"/>
<path d="M473.332 100.956V103.344L496.267 117.539V86.7604L473.332 100.956ZM478.831 102.15L492.132 94.1354V110.207L478.831 102.15ZM491.535 123.891C491.535 124.63 491.776 125.241 492.259 125.724C492.771 126.236 493.41 126.492 494.178 126.492C494.945 126.492 495.57 126.236 496.053 125.724C496.565 125.241 496.821 124.63 496.821 123.891C496.821 123.152 496.565 122.527 496.053 122.016C495.57 121.532 494.945 121.291 494.178 121.291C493.41 121.291 492.771 121.532 492.259 122.016C491.776 122.527 491.535 123.152 491.535 123.891Z" fill="#2455F0"/>
<path d="M473.332 272.311V274.698L496.267 288.894V258.115L473.332 272.311ZM478.831 273.504L492.132 265.49V281.561L478.831 273.504ZM491.535 295.246C491.535 295.985 491.776 296.596 492.259 297.079C492.771 297.59 493.41 297.846 494.178 297.846C494.945 297.846 495.57 297.59 496.053 297.079C496.565 296.596 496.821 295.985 496.821 295.246C496.821 294.507 496.565 293.882 496.053 293.37C495.57 292.887 494.945 292.645 494.178 292.645C493.41 292.645 492.771 292.887 492.259 293.37C491.776 293.882 491.535 294.507 491.535 295.246Z" fill="#2455F0"/>
<path d="M83.6985 82.7386L83.6985 80.3513L60.7634 66.1555L60.7634 96.9345L83.6985 82.7386ZM78.1992 81.545L64.8986 89.5594L64.8986 73.4879L78.1992 81.545ZM65.4954 59.8036C65.4954 59.0646 65.2538 58.4536 64.7707 57.9705C64.2591 57.4589 63.6197 57.2031 62.8523 57.2031C62.085 57.2031 61.4597 57.4589 60.9766 57.9705C60.465 58.4536 60.2093 59.0646 60.2093 59.8036C60.2093 60.5425 60.465 61.1677 60.9766 61.6793C61.4597 62.1624 62.085 62.404 62.8523 62.404C63.6197 62.404 64.2591 62.1624 64.7707 61.6793C65.2538 61.1677 65.4954 60.5425 65.4954 59.8036Z" fill="#2455F0"/>
<path d="M83.6985 254.093L83.6985 251.706L60.7634 237.51L60.7634 268.289L83.6985 254.093ZM78.1992 252.899L64.8986 260.914L64.8986 244.842L78.1992 252.899ZM65.4954 231.158C65.4954 230.419 65.2538 229.808 64.7707 229.325C64.2591 228.813 63.6197 228.558 62.8523 228.558C62.085 228.558 61.4597 228.813 60.9766 229.325C60.465 229.808 60.2093 230.419 60.2093 231.158C60.2093 231.897 60.465 232.522 60.9766 233.034C61.4597 233.517 62.085 233.759 62.8523 233.759C63.6197 233.759 64.2591 233.517 64.7707 233.034C65.2538 232.522 65.4954 231.897 65.4954 231.158Z" fill="#2455F0"/>
<path d="M83.6985 168.785L83.6985 166.398L60.7634 152.202L60.7634 182.981L83.6985 168.785ZM78.1992 167.592L64.8986 175.606L64.8986 159.535L78.1992 167.592ZM65.4954 145.85C65.4954 145.112 65.2538 144.5 64.7707 144.017C64.2591 143.506 63.6197 143.25 62.8523 143.25C62.085 143.25 61.4597 143.506 60.9766 144.017C60.465 144.5 60.2093 145.112 60.2093 145.85C60.2093 146.589 60.465 147.215 60.9766 147.726C61.4597 148.209 62.085 148.451 62.8523 148.451C63.6197 148.451 64.2591 148.209 64.7707 147.726C65.2538 147.215 65.4954 146.589 65.4954 145.85Z" fill="#2455F0"/>
<path d="M83.6985 340.14L83.6985 337.753L60.7634 323.557L60.7634 354.336L83.6985 340.14ZM78.1992 338.946L64.8986 346.961L64.8986 330.889L78.1992 338.946ZM65.4954 317.205C65.4954 316.466 65.2538 315.855 64.7707 315.372C64.2591 314.86 63.6197 314.604 62.8523 314.604C62.085 314.604 61.4597 314.86 60.9766 315.372C60.465 315.855 60.2093 316.466 60.2093 317.205C60.2093 317.944 60.465 318.569 60.9766 319.081C61.4597 319.564 62.085 319.805 62.8523 319.805C63.6197 319.805 64.2591 319.564 64.7707 319.081C65.2538 318.569 65.4954 317.944 65.4954 317.205Z" fill="#2455F0"/>
<path d="M353.689 80.743L353.689 78.3557L330.754 64.1599L330.754 94.9389L353.689 80.743ZM348.189 79.5494L334.889 87.5638L334.889 71.4923L348.189 79.5494ZM335.486 57.808C335.486 57.069 335.244 56.458 334.761 55.9749C334.249 55.4633 333.61 55.2075 332.842 55.2075C332.075 55.2075 331.45 55.4633 330.967 55.9749C330.455 56.458 330.199 57.069 330.199 57.808C330.199 58.5469 330.455 59.1721 330.967 59.6837C331.45 60.1668 332.075 60.4084 332.842 60.4084C333.61 60.4084 334.249 60.1668 334.761 59.6837C335.244 59.1721 335.486 58.5469 335.486 57.808Z" fill="#2455F0"/>
<path d="M353.689 252.097L353.689 249.71L330.754 235.514L330.754 266.293L353.689 252.097ZM348.189 250.904L334.889 258.918L334.889 242.847L348.189 250.904ZM335.486 229.162C335.486 228.424 335.244 227.812 334.761 227.329C334.249 226.818 333.61 226.562 332.842 226.562C332.075 226.562 331.45 226.818 330.967 227.329C330.455 227.813 330.199 228.424 330.199 229.162C330.199 229.901 330.455 230.527 330.967 231.038C331.45 231.521 332.075 231.763 332.842 231.763C333.61 231.763 334.249 231.521 334.761 231.038C335.244 230.527 335.486 229.901 335.486 229.162Z" fill="#2455F0"/>
<path d="M353.689 166.79L353.689 164.403L330.754 150.207L330.754 180.986L353.689 166.79ZM348.189 165.597L334.889 173.611L334.889 157.54L348.189 165.597ZM335.486 143.855C335.486 143.116 335.244 142.505 334.761 142.022C334.249 141.511 333.61 141.255 332.842 141.255C332.075 141.255 331.45 141.511 330.967 142.022C330.455 142.505 330.199 143.116 330.199 143.855C330.199 144.594 330.455 145.219 330.967 145.731C331.45 146.214 332.075 146.456 332.842 146.456C333.61 146.456 334.249 146.214 334.761 145.731C335.244 145.219 335.486 144.594 335.486 143.855Z" fill="#2455F0"/>
<path d="M353.689 338.145L353.689 335.758L330.754 321.562L330.754 352.341L353.689 338.145ZM348.189 336.951L334.889 344.966L334.889 328.894L348.189 336.951ZM335.486 315.21C335.486 314.471 335.244 313.86 334.761 313.377C334.249 312.865 333.61 312.609 332.842 312.609C332.075 312.609 331.45 312.865 330.967 313.377C330.455 313.86 330.199 314.471 330.199 315.21C330.199 315.949 330.455 316.574 330.967 317.086C331.45 317.569 332.075 317.81 332.842 317.81C333.61 317.81 334.249 317.569 334.761 317.086C335.244 316.574 335.486 315.949 335.486 315.21Z" fill="#2455F0"/>
<path d="M218.694 81.3065L218.694 78.9192L195.759 64.7233L195.759 95.5023L218.694 81.3065ZM213.194 80.1128L199.894 88.1273L199.894 72.0557L213.194 80.1128ZM200.491 58.3714C200.491 57.6325 200.249 57.0215 199.766 56.5383C199.254 56.0268 198.615 55.771 197.847 55.771C197.08 55.771 196.455 56.0268 195.972 56.5383C195.46 57.0215 195.204 57.6325 195.204 58.3714C195.204 59.1104 195.46 59.7356 195.972 60.2472C196.455 60.7303 197.08 60.9719 197.847 60.9719C198.615 60.9719 199.254 60.7303 199.766 60.2472C200.249 59.7356 200.491 59.1104 200.491 58.3714Z" fill="#2455F0"/>
<path d="M218.694 252.661L218.694 250.274L195.759 236.078L195.759 266.857L218.694 252.661ZM213.194 251.467L199.894 259.482L199.894 243.41L213.194 251.467ZM200.491 229.726C200.491 228.987 200.249 228.376 199.766 227.893C199.254 227.381 198.615 227.125 197.847 227.125C197.08 227.125 196.455 227.381 195.972 227.893C195.46 228.376 195.204 228.987 195.204 229.726C195.204 230.465 195.46 231.09 195.972 231.602C196.455 232.085 197.08 232.326 197.847 232.326C198.615 232.326 199.254 232.085 199.766 231.602C200.249 231.09 200.491 230.465 200.491 229.726Z" fill="#2455F0"/>
<path d="M218.694 167.354L218.694 164.967L195.759 150.771L195.759 181.55L218.694 167.354ZM213.194 166.16L199.894 174.175L199.894 158.103L213.194 166.16ZM200.491 144.419C200.491 143.68 200.249 143.069 199.766 142.586C199.254 142.074 198.615 141.818 197.847 141.818C197.08 141.818 196.455 142.074 195.972 142.586C195.46 143.069 195.204 143.68 195.204 144.419C195.204 145.158 195.46 145.783 195.972 146.295C196.455 146.778 197.08 147.019 197.847 147.019C198.615 147.019 199.254 146.778 199.766 146.295C200.249 145.783 200.491 145.158 200.491 144.419Z" fill="#2455F0"/>
<path d="M218.694 338.708L218.694 336.321L195.759 322.125L195.759 352.904L218.694 338.708ZM213.194 337.515L199.894 345.529L199.894 329.458L213.194 337.515ZM200.491 315.773C200.491 315.034 200.249 314.423 199.766 313.94C199.254 313.429 198.615 313.173 197.847 313.173C197.08 313.173 196.455 313.429 195.972 313.94C195.46 314.423 195.204 315.034 195.204 315.773C195.204 316.512 195.46 317.137 195.972 317.649C196.455 318.132 197.08 318.374 197.847 318.374C198.615 318.374 199.254 318.132 199.766 317.649C200.249 317.137 200.491 316.512 200.491 315.773Z" fill="#2455F0"/>
<path d="M488.684 79.3114L488.684 76.9241L465.749 62.7282L465.749 93.5072L488.684 79.3114ZM483.184 78.1177L469.884 86.1322L469.884 70.0606L483.184 78.1177ZM470.481 56.3763C470.481 55.6374 470.239 55.0264 469.756 54.5432C469.244 54.0317 468.605 53.7759 467.838 53.7759C467.07 53.7759 466.445 54.0317 465.962 54.5432C465.45 55.0264 465.195 55.6374 465.195 56.3763C465.195 57.1152 465.45 57.7405 465.962 58.2521C466.445 58.7352 467.07 58.9768 467.838 58.9768C468.605 58.9768 469.244 58.7352 469.756 58.2521C470.239 57.7405 470.481 57.1152 470.481 56.3763Z" fill="#2455F0"/>
<path d="M488.684 250.666L488.684 248.279L465.749 234.083L465.749 264.862L488.684 250.666ZM483.184 249.472L469.884 257.487L469.884 241.415L483.184 249.472ZM470.481 227.731C470.481 226.992 470.239 226.381 469.756 225.898C469.244 225.386 468.605 225.13 467.838 225.13C467.07 225.13 466.445 225.386 465.962 225.898C465.45 226.381 465.195 226.992 465.195 227.731C465.195 228.47 465.45 229.095 465.962 229.607C466.445 230.09 467.07 230.331 467.838 230.331C468.605 230.331 469.244 230.09 469.756 229.607C470.239 229.095 470.481 228.47 470.481 227.731Z" fill="#2455F0"/>
<path d="M488.684 165.359L488.684 162.971L465.749 148.776L465.749 179.555L488.684 165.359ZM483.184 164.165L469.884 172.18L469.884 156.108L483.184 164.165ZM470.481 142.424C470.481 141.685 470.239 141.074 469.756 140.591C469.244 140.079 468.605 139.823 467.838 139.823C467.07 139.823 466.445 140.079 465.962 140.591C465.45 141.074 465.195 141.685 465.195 142.424C465.195 143.163 465.45 143.788 465.962 144.299C466.445 144.783 467.07 145.024 467.838 145.024C468.605 145.024 469.244 144.783 469.756 144.299C470.239 143.788 470.481 143.163 470.481 142.424Z" fill="#2455F0"/>
<path d="M488.684 336.713L488.684 334.326L465.749 320.13L465.749 350.909L488.684 336.713ZM483.184 335.52L469.884 343.534L469.884 327.462L483.184 335.52ZM470.481 313.778C470.481 313.039 470.239 312.428 469.756 311.945C469.244 311.434 468.605 311.178 467.838 311.178C467.07 311.178 466.445 311.434 465.962 311.945C465.45 312.428 465.195 313.039 465.195 313.778C465.195 314.517 465.45 315.142 465.962 315.654C466.445 316.137 467.07 316.379 467.838 316.379C468.605 316.379 469.244 316.137 469.756 315.654C470.239 315.142 470.481 314.517 470.481 313.778Z" fill="#2455F0"/>
<path d="M151.196 82.7386L151.196 80.3513L128.261 66.1555L128.261 96.9345L151.196 82.7386ZM145.697 81.545L132.396 89.5594L132.396 73.4879L145.697 81.545ZM132.993 59.8036C132.993 59.0646 132.752 58.4536 132.268 57.9705C131.757 57.4589 131.117 57.2031 130.35 57.2031C129.583 57.2031 128.957 57.4589 128.474 57.9705C127.963 58.4536 127.707 59.0646 127.707 59.8036C127.707 60.5425 127.963 61.1677 128.474 61.6793C128.957 62.1624 129.583 62.404 130.35 62.404C131.117 62.404 131.757 62.1624 132.268 61.6793C132.752 61.1677 132.993 60.5425 132.993 59.8036Z" fill="#2455F0"/>
<path d="M151.196 254.093L151.196 251.706L128.261 237.51L128.261 268.289L151.196 254.093ZM145.697 252.899L132.396 260.914L132.396 244.842L145.697 252.899ZM132.993 231.158C132.993 230.419 132.752 229.808 132.268 229.325C131.757 228.813 131.117 228.558 130.35 228.558C129.583 228.558 128.957 228.813 128.474 229.325C127.963 229.808 127.707 230.419 127.707 231.158C127.707 231.897 127.963 232.522 128.474 233.034C128.957 233.517 129.583 233.759 130.35 233.759C131.117 233.759 131.757 233.517 132.268 233.034C132.752 232.522 132.993 231.897 132.993 231.158Z" fill="#2455F0"/>
<path d="M151.196 168.785L151.196 166.398L128.261 152.202L128.261 182.981L151.196 168.785ZM145.697 167.592L132.396 175.606L132.396 159.535L145.697 167.592ZM132.993 145.85C132.993 145.112 132.752 144.5 132.268 144.017C131.757 143.506 131.117 143.25 130.35 143.25C129.583 143.25 128.957 143.506 128.474 144.017C127.963 144.5 127.707 145.112 127.707 145.85C127.707 146.589 127.963 147.215 128.474 147.726C128.957 148.209 129.583 148.451 130.35 148.451C131.117 148.451 131.757 148.209 132.268 147.726C132.752 147.215 132.993 146.589 132.993 145.85Z" fill="#2455F0"/>
<path d="M151.196 340.14L151.196 337.753L128.261 323.557L128.261 354.336L151.196 340.14ZM145.697 338.946L132.396 346.961L132.396 330.889L145.697 338.946ZM132.993 317.205C132.993 316.466 132.752 315.855 132.268 315.372C131.757 314.86 131.117 314.604 130.35 314.604C129.583 314.604 128.957 314.86 128.474 315.372C127.963 315.855 127.707 316.466 127.707 317.205C127.707 317.944 127.963 318.569 128.474 319.081C128.957 319.564 129.583 319.805 130.35 319.805C131.117 319.805 131.757 319.564 132.268 319.081C132.752 318.569 132.993 317.944 132.993 317.205Z" fill="#2455F0"/>
<path d="M421.186 80.743L421.186 78.3557L398.251 64.1599L398.251 94.9389L421.186 80.743ZM415.687 79.5494L402.386 87.5638L402.386 71.4923L415.687 79.5494ZM402.983 57.808C402.983 57.069 402.742 56.458 402.259 55.9749C401.747 55.4633 401.108 55.2075 400.34 55.2075C399.573 55.2075 398.948 55.4633 398.464 55.9749C397.953 56.458 397.697 57.069 397.697 57.808C397.697 58.5469 397.953 59.1721 398.464 59.6837C398.948 60.1668 399.573 60.4084 400.34 60.4084C401.108 60.4084 401.747 60.1668 402.259 59.6837C402.742 59.1721 402.983 58.5469 402.983 57.808Z" fill="#2455F0"/>
<path d="M421.186 252.097L421.186 249.71L398.251 235.514L398.251 266.293L421.186 252.097ZM415.687 250.904L402.386 258.918L402.386 242.847L415.687 250.904ZM402.983 229.162C402.983 228.424 402.742 227.812 402.259 227.329C401.747 226.818 401.108 226.562 400.34 226.562C399.573 226.562 398.948 226.818 398.464 227.329C397.953 227.813 397.697 228.424 397.697 229.162C397.697 229.901 397.953 230.527 398.464 231.038C398.948 231.521 399.573 231.763 400.34 231.763C401.108 231.763 401.747 231.521 402.259 231.038C402.742 230.527 402.983 229.901 402.983 229.162Z" fill="#2455F0"/>
<path d="M421.186 166.79L421.186 164.403L398.251 150.207L398.251 180.986L421.186 166.79ZM415.687 165.597L402.386 173.611L402.386 157.54L415.687 165.597ZM402.983 143.855C402.983 143.116 402.742 142.505 402.259 142.022C401.747 141.511 401.108 141.255 400.34 141.255C399.573 141.255 398.948 141.511 398.464 142.022C397.953 142.505 397.697 143.116 397.697 143.855C397.697 144.594 397.953 145.219 398.464 145.731C398.948 146.214 399.573 146.456 400.34 146.456C401.108 146.456 401.747 146.214 402.259 145.731C402.742 145.219 402.983 144.594 402.983 143.855Z" fill="#2455F0"/>
<path d="M421.186 338.145L421.186 335.758L398.251 321.562L398.251 352.341L421.186 338.145ZM415.687 336.951L402.386 344.966L402.386 328.894L415.687 336.951ZM402.983 315.21C402.983 314.471 402.742 313.86 402.259 313.377C401.747 312.865 401.108 312.609 400.34 312.609C399.573 312.609 398.948 312.865 398.464 313.377C397.953 313.86 397.697 314.471 397.697 315.21C397.697 315.949 397.953 316.574 398.464 317.086C398.948 317.569 399.573 317.81 400.34 317.81C401.108 317.81 401.747 317.569 402.259 317.086C402.742 316.574 402.983 315.949 402.983 315.21Z" fill="#2455F0"/>
<path d="M286.191 81.3065L286.191 78.9192L263.256 64.7233L263.256 95.5023L286.191 81.3065ZM280.692 80.1128L267.391 88.1273L267.391 72.0557L280.692 80.1128ZM267.988 58.3714C267.988 57.6325 267.747 57.0215 267.263 56.5383C266.752 56.0268 266.112 55.771 265.345 55.771C264.578 55.771 263.953 56.0268 263.469 56.5383C262.958 57.0215 262.702 57.6325 262.702 58.3714C262.702 59.1104 262.958 59.7356 263.469 60.2472C263.953 60.7303 264.578 60.9719 265.345 60.9719C266.112 60.9719 266.752 60.7303 267.263 60.2472C267.747 59.7356 267.988 59.1104 267.988 58.3714Z" fill="#2455F0"/>
<path d="M286.191 252.661L286.191 250.274L263.256 236.078L263.256 266.857L286.191 252.661ZM280.692 251.467L267.391 259.482L267.391 243.41L280.692 251.467ZM267.988 229.726C267.988 228.987 267.747 228.376 267.263 227.893C266.752 227.381 266.112 227.125 265.345 227.125C264.578 227.125 263.953 227.381 263.469 227.893C262.958 228.376 262.702 228.987 262.702 229.726C262.702 230.465 262.958 231.09 263.469 231.602C263.953 232.085 264.578 232.326 265.345 232.326C266.112 232.326 266.752 232.085 267.263 231.602C267.747 231.09 267.988 230.465 267.988 229.726Z" fill="#2455F0"/>
<path d="M286.191 167.354L286.191 164.967L263.256 150.771L263.256 181.55L286.191 167.354ZM280.692 166.16L267.391 174.175L267.391 158.103L280.692 166.16ZM267.988 144.419C267.988 143.68 267.747 143.069 267.263 142.586C266.752 142.074 266.112 141.818 265.345 141.818C264.578 141.818 263.953 142.074 263.469 142.586C262.958 143.069 262.702 143.68 262.702 144.419C262.702 145.158 262.958 145.783 263.469 146.295C263.953 146.778 264.578 147.019 265.345 147.019C266.112 147.019 266.752 146.778 267.263 146.295C267.747 145.783 267.988 145.158 267.988 144.419Z" fill="#2455F0"/>
<path d="M286.191 338.708L286.191 336.321L263.256 322.125L263.256 352.904L286.191 338.708ZM280.692 337.515L267.391 345.529L267.391 329.458L280.692 337.515ZM267.988 315.773C267.988 315.034 267.747 314.423 267.263 313.94C266.752 313.429 266.112 313.173 265.345 313.173C264.578 313.173 263.953 313.429 263.469 313.94C262.958 314.423 262.702 315.034 262.702 315.773C262.702 316.512 262.958 317.137 263.469 317.649C263.953 318.132 264.578 318.374 265.345 318.374C266.112 318.374 266.752 318.132 267.263 317.649C267.747 317.137 267.988 316.512 267.988 315.773Z" fill="#2455F0"/>
<path d="M556.181 79.3114L556.181 76.9241L533.246 62.7282L533.246 93.5072L556.181 79.3114ZM550.682 78.1177L537.382 86.1322L537.382 70.0606L550.682 78.1177ZM537.978 56.3763C537.978 55.6374 537.737 55.0264 537.254 54.5432C536.742 54.0317 536.103 53.7759 535.335 53.7759C534.568 53.7759 533.943 54.0317 533.46 54.5432C532.948 55.0264 532.692 55.6374 532.692 56.3763C532.692 57.1152 532.948 57.7405 533.46 58.2521C533.943 58.7352 534.568 58.9768 535.335 58.9768C536.103 58.9768 536.742 58.7352 537.254 58.2521C537.737 57.7405 537.978 57.1152 537.978 56.3763Z" fill="#2455F0"/>
<path d="M556.181 250.666L556.181 248.279L533.246 234.083L533.246 264.862L556.181 250.666ZM550.682 249.472L537.382 257.487L537.382 241.415L550.682 249.472ZM537.978 227.731C537.978 226.992 537.737 226.381 537.254 225.898C536.742 225.386 536.103 225.13 535.335 225.13C534.568 225.13 533.943 225.386 533.46 225.898C532.948 226.381 532.692 226.992 532.692 227.731C532.692 228.47 532.948 229.095 533.46 229.607C533.943 230.09 534.568 230.331 535.335 230.331C536.103 230.331 536.742 230.09 537.254 229.607C537.737 229.095 537.978 228.47 537.978 227.731Z" fill="#2455F0"/>
<path d="M556.181 165.359L556.181 162.971L533.246 148.776L533.246 179.555L556.181 165.359ZM550.682 164.165L537.382 172.18L537.382 156.108L550.682 164.165ZM537.978 142.424C537.978 141.685 537.737 141.074 537.254 140.591C536.742 140.079 536.103 139.823 535.335 139.823C534.568 139.823 533.943 140.079 533.46 140.591C532.948 141.074 532.692 141.685 532.692 142.424C532.692 143.163 532.948 143.788 533.46 144.299C533.943 144.783 534.568 145.024 535.335 145.024C536.103 145.024 536.742 144.783 537.254 144.299C537.737 143.788 537.978 143.163 537.978 142.424Z" fill="#2455F0"/>
<path d="M556.181 336.713L556.181 334.326L533.246 320.13L533.246 350.909L556.181 336.713ZM550.682 335.52L537.382 343.534L537.382 327.462L550.682 335.52ZM537.978 313.778C537.978 313.039 537.737 312.428 537.254 311.945C536.742 311.434 536.103 311.178 535.335 311.178C534.568 311.178 533.943 311.434 533.46 311.945C532.948 312.428 532.692 313.039 532.692 313.778C532.692 314.517 532.948 315.142 533.46 315.654C533.943 316.137 534.568 316.379 535.335 316.379C536.103 316.379 536.742 316.137 537.254 315.654C537.737 315.142 537.978 314.517 537.978 313.778Z" fill="#2455F0"/>
<path d="M81.5332 40.5892L81.5332 38.2019L58.5982 24.0061L58.5982 54.7851L81.5332 40.5892ZM76.0339 39.3956L62.7333 47.41L62.7333 31.3384L76.0339 39.3956ZM63.3301 17.6542C63.3301 16.9152 63.0885 16.3042 62.6054 15.8211C62.0938 15.3095 61.4544 15.0537 60.687 15.0537C59.9197 15.0537 59.2945 15.3095 58.8113 15.8211C58.2997 16.3042 58.044 16.9152 58.044 17.6542C58.044 18.3931 58.2997 19.0183 58.8113 19.5299C59.2945 20.013 59.9197 20.2546 60.687 20.2546C61.4544 20.2546 62.0938 20.013 62.6054 19.5299C63.0885 19.0183 63.3301 18.3931 63.3301 17.6542Z" fill="#2455F0"/>
<path d="M81.5332 211.944L81.5332 209.556L58.5982 195.361L58.5982 226.14L81.5332 211.944ZM76.0339 210.75L62.7333 218.765L62.7333 202.693L76.0339 210.75ZM63.3301 189.009C63.3301 188.27 63.0885 187.659 62.6054 187.176C62.0938 186.664 61.4544 186.408 60.687 186.408C59.9197 186.408 59.2945 186.664 58.8113 187.176C58.2997 187.659 58.044 188.27 58.044 189.009C58.044 189.748 58.2997 190.373 58.8113 190.884C59.2945 191.368 59.9197 191.609 60.687 191.609C61.4544 191.609 62.0938 191.368 62.6054 190.884C63.0885 190.373 63.3301 189.748 63.3301 189.009Z" fill="#2455F0"/>
<path d="M81.5332 126.636L81.5332 124.249L58.5982 110.053L58.5982 140.832L81.5332 126.636ZM76.0339 125.442L62.7333 133.457L62.7333 117.385L76.0339 125.442ZM63.3301 103.701C63.3301 102.962 63.0885 102.351 62.6054 101.868C62.0938 101.356 61.4544 101.101 60.687 101.101C59.9197 101.101 59.2945 101.356 58.8113 101.868C58.2997 102.351 58.044 102.962 58.044 103.701C58.044 104.44 58.2997 105.065 58.8113 105.577C59.2945 106.06 59.9197 106.301 60.687 106.301C61.4544 106.301 62.0938 106.06 62.6054 105.577C63.0885 105.065 63.3301 104.44 63.3301 103.701Z" fill="#2455F0"/>
<path d="M81.5332 297.991L81.5332 295.604L58.5982 281.408L58.5982 312.187L81.5332 297.991ZM76.0339 296.797L62.7333 304.812L62.7333 288.74L76.0339 296.797ZM63.3301 275.056C63.3301 274.317 63.0885 273.706 62.6054 273.223C62.0938 272.711 61.4544 272.456 60.687 272.456C59.9197 272.456 59.2945 272.711 58.8113 273.223C58.2997 273.706 58.044 274.317 58.044 275.056C58.044 275.795 58.2997 276.42 58.8113 276.932C59.2945 277.415 59.9197 277.656 60.687 277.656C61.4544 277.656 62.0938 277.415 62.6054 276.932C63.0885 276.42 63.3301 275.795 63.3301 275.056Z" fill="#2455F0"/>
<path d="M351.523 38.5941L351.523 36.2068L328.588 22.0109L328.588 52.7899L351.523 38.5941ZM346.024 37.4004L332.723 45.4149L332.723 29.3433L346.024 37.4004ZM333.32 15.659C333.32 14.9201 333.079 14.3091 332.595 13.8259C332.084 13.3144 331.444 13.0586 330.677 13.0586C329.91 13.0586 329.285 13.3144 328.801 13.8259C328.29 14.3091 328.034 14.9201 328.034 15.659C328.034 16.398 328.29 17.0232 328.801 17.5348C329.285 18.0179 329.91 18.2595 330.677 18.2595C331.444 18.2595 332.084 18.0179 332.595 17.5348C333.079 17.0232 333.32 16.398 333.32 15.659Z" fill="#2455F0"/>
<path d="M351.523 209.949L351.523 207.561L328.588 193.365L328.588 224.144L351.523 209.949ZM346.024 208.755L332.723 216.769L332.723 200.698L346.024 208.755ZM333.32 187.014C333.32 186.275 333.079 185.664 332.595 185.18C332.084 184.669 331.444 184.413 330.677 184.413C329.91 184.413 329.285 184.669 328.801 185.18C328.29 185.664 328.034 186.275 328.034 187.014C328.034 187.752 328.29 188.378 328.801 188.889C329.285 189.372 329.91 189.614 330.677 189.614C331.444 189.614 332.084 189.372 332.595 188.889C333.079 188.378 333.32 187.752 333.32 187.014Z" fill="#2455F0"/>
<path d="M351.523 124.641L351.523 122.254L328.588 108.058L328.588 138.837L351.523 124.641ZM346.024 123.448L332.723 131.462L332.723 115.391L346.024 123.448ZM333.32 101.706C333.32 100.967 333.079 100.356 332.595 99.8733C332.084 99.3617 331.444 99.106 330.677 99.106C329.91 99.106 329.285 99.3617 328.801 99.8733C328.29 100.356 328.034 100.967 328.034 101.706C328.034 102.445 328.29 103.071 328.801 103.582C329.285 104.065 329.91 104.307 330.677 104.307C331.444 104.307 332.084 104.065 332.595 103.582C333.079 103.071 333.32 102.445 333.32 101.706Z" fill="#2455F0"/>
<path d="M351.523 295.996L351.523 293.609L328.588 279.413L328.588 310.192L351.523 295.996ZM346.024 294.802L332.723 302.817L332.723 286.745L346.024 294.802ZM333.32 273.061C333.32 272.322 333.079 271.711 332.595 271.228C332.084 270.716 331.444 270.46 330.677 270.46C329.91 270.46 329.285 270.716 328.801 271.228C328.29 271.711 328.034 272.322 328.034 273.061C328.034 273.8 328.29 274.425 328.801 274.937C329.285 275.42 329.91 275.661 330.677 275.661C331.444 275.661 332.084 275.42 332.595 274.937C333.079 274.425 333.32 273.8 333.32 273.061Z" fill="#2455F0"/>
<path d="M216.528 39.1576L216.528 36.7703L193.593 22.5744L193.593 53.3534L216.528 39.1576ZM211.029 37.9639L197.728 45.9784L197.728 29.9068L211.029 37.9639ZM198.325 16.2225C198.325 15.4836 198.084 14.8726 197.601 14.3894C197.089 13.8779 196.45 13.6221 195.682 13.6221C194.915 13.6221 194.29 13.8779 193.806 14.3894C193.295 14.8726 193.039 15.4836 193.039 16.2225C193.039 16.9614 193.295 17.5867 193.806 18.0982C194.29 18.5814 194.915 18.823 195.682 18.823C196.45 18.823 197.089 18.5814 197.601 18.0982C198.084 17.5867 198.325 16.9614 198.325 16.2225Z" fill="#2455F0"/>
<path d="M216.528 210.512L216.528 208.125L193.593 193.929L193.593 224.708L216.528 210.512ZM211.029 209.318L197.728 217.333L197.728 201.261L211.029 209.318ZM198.325 187.577C198.325 186.838 198.084 186.227 197.601 185.744C197.089 185.232 196.45 184.977 195.682 184.977C194.915 184.977 194.29 185.232 193.806 185.744C193.295 186.227 193.039 186.838 193.039 187.577C193.039 188.316 193.295 188.941 193.806 189.453C194.29 189.936 194.915 190.177 195.682 190.177C196.45 190.177 197.089 189.936 197.601 189.453C198.084 188.941 198.325 188.316 198.325 187.577Z" fill="#2455F0"/>
<path d="M216.528 125.204L216.528 122.817L193.593 108.621L193.593 139.4L216.528 125.204ZM211.029 124.011L197.728 132.025L197.728 115.954L211.029 124.011ZM198.325 102.269C198.325 101.53 198.084 100.919 197.601 100.436C197.089 99.9247 196.45 99.6689 195.682 99.6689C194.915 99.6689 194.29 99.9247 193.806 100.436C193.295 100.919 193.039 101.53 193.039 102.269C193.039 103.008 193.295 103.634 193.806 104.145C194.29 104.628 194.915 104.87 195.682 104.87C196.45 104.87 197.089 104.628 197.601 104.145C198.084 103.634 198.325 103.008 198.325 102.269Z" fill="#2455F0"/>
<path d="M216.528 296.559L216.528 294.172L193.593 279.976L193.593 310.755L216.528 296.559ZM211.029 295.365L197.728 303.38L197.728 287.308L211.029 295.365ZM198.325 273.624C198.325 272.885 198.084 272.274 197.601 271.791C197.089 271.279 196.45 271.023 195.682 271.023C194.915 271.023 194.29 271.279 193.806 271.791C193.295 272.274 193.039 272.885 193.039 273.624C193.039 274.363 193.295 274.988 193.806 275.5C194.29 275.983 194.915 276.224 195.682 276.224C196.45 276.224 197.089 275.983 197.601 275.5C198.084 274.988 198.325 274.363 198.325 273.624Z" fill="#2455F0"/>
<path d="M486.518 37.1624L486.518 34.7752L463.583 20.5793L463.583 51.3583L486.518 37.1624ZM481.019 35.9688L467.718 43.9833L467.718 27.9117L481.019 35.9688ZM468.315 14.2274C468.315 13.4885 468.074 12.8774 467.591 12.3943C467.079 11.8827 466.44 11.627 465.672 11.627C464.905 11.627 464.28 11.8827 463.796 12.3943C463.285 12.8774 463.029 13.4885 463.029 14.2274C463.029 14.9663 463.285 15.5916 463.796 16.1031C464.28 16.5863 464.905 16.8278 465.672 16.8278C466.44 16.8278 467.079 16.5863 467.591 16.1031C468.074 15.5916 468.315 14.9663 468.315 14.2274Z" fill="#2455F0"/>
<path d="M486.518 208.517L486.518 206.13L463.583 191.934L463.583 222.713L486.518 208.517ZM481.019 207.323L467.718 215.338L467.718 199.266L481.019 207.323ZM468.315 185.582C468.315 184.843 468.074 184.232 467.591 183.749C467.079 183.237 466.44 182.981 465.672 182.981C464.905 182.981 464.28 183.237 463.796 183.749C463.285 184.232 463.029 184.843 463.029 185.582C463.029 186.321 463.285 186.946 463.796 187.458C464.28 187.941 464.905 188.182 465.672 188.182C466.44 188.182 467.079 187.941 467.591 187.458C468.074 186.946 468.315 186.321 468.315 185.582Z" fill="#2455F0"/>
<path d="M486.518 123.21L486.518 120.823L463.583 106.627L463.583 137.406L486.518 123.21ZM481.019 122.016L467.718 130.031L467.718 113.959L481.019 122.016ZM468.315 100.275C468.315 99.5358 468.074 98.9248 467.591 98.4417C467.079 97.9301 466.44 97.6743 465.672 97.6743C464.905 97.6743 464.28 97.9301 463.796 98.4417C463.285 98.9248 463.029 99.5358 463.029 100.275C463.029 101.014 463.285 101.639 463.796 102.15C464.28 102.634 464.905 102.875 465.672 102.875C466.44 102.875 467.079 102.634 467.591 102.15C468.074 101.639 468.315 101.014 468.315 100.275Z" fill="#2455F0"/>
<path d="M486.518 294.564L486.518 292.177L463.583 277.981L463.583 308.76L486.518 294.564ZM481.019 293.371L467.718 301.385L467.718 285.314L481.019 293.371ZM468.315 271.629C468.315 270.89 468.074 270.279 467.591 269.796C467.079 269.285 466.44 269.029 465.672 269.029C464.905 269.029 464.28 269.285 463.796 269.796C463.285 270.279 463.029 270.89 463.029 271.629C463.029 272.368 463.285 272.993 463.796 273.505C464.28 273.988 464.905 274.23 465.672 274.23C466.44 274.23 467.079 273.988 467.591 273.505C468.074 272.993 468.315 272.368 468.315 271.629Z" fill="#2455F0"/>
<path d="M149.031 40.5892L149.031 38.2019L126.096 24.0061L126.096 54.7851L149.031 40.5892ZM143.532 39.3956L130.231 47.41L130.231 31.3384L143.532 39.3956ZM130.828 17.6542C130.828 16.9152 130.586 16.3042 130.103 15.8211C129.592 15.3095 128.952 15.0537 128.185 15.0537C127.417 15.0537 126.792 15.3095 126.309 15.8211C125.797 16.3042 125.542 16.9152 125.542 17.6542C125.542 18.3931 125.797 19.0183 126.309 19.5299C126.792 20.013 127.417 20.2546 128.185 20.2546C128.952 20.2546 129.592 20.013 130.103 19.5299C130.586 19.0183 130.828 18.3931 130.828 17.6542Z" fill="#2455F0"/>
<path d="M149.031 211.944L149.031 209.556L126.096 195.361L126.096 226.14L149.031 211.944ZM143.532 210.75L130.231 218.765L130.231 202.693L143.532 210.75ZM130.828 189.009C130.828 188.27 130.586 187.659 130.103 187.176C129.592 186.664 128.952 186.408 128.185 186.408C127.417 186.408 126.792 186.664 126.309 187.176C125.797 187.659 125.542 188.27 125.542 189.009C125.542 189.748 125.797 190.373 126.309 190.884C126.792 191.368 127.417 191.609 128.185 191.609C128.952 191.609 129.592 191.368 130.103 190.884C130.586 190.373 130.828 189.748 130.828 189.009Z" fill="#2455F0"/>
<path d="M149.031 126.636L149.031 124.249L126.096 110.053L126.096 140.832L149.031 126.636ZM143.532 125.442L130.231 133.457L130.231 117.385L143.532 125.442ZM130.828 103.701C130.828 102.962 130.586 102.351 130.103 101.868C129.592 101.356 128.952 101.101 128.185 101.101C127.417 101.101 126.792 101.356 126.309 101.868C125.797 102.351 125.542 102.962 125.542 103.701C125.542 104.44 125.797 105.065 126.309 105.577C126.792 106.06 127.417 106.301 128.185 106.301C128.952 106.301 129.592 106.06 130.103 105.577C130.586 105.065 130.828 104.44 130.828 103.701Z" fill="#2455F0"/>
<path d="M149.031 297.991L149.031 295.604L126.096 281.408L126.096 312.187L149.031 297.991ZM143.532 296.797L130.231 304.812L130.231 288.74L143.532 296.797ZM130.828 275.056C130.828 274.317 130.586 273.706 130.103 273.223C129.592 272.711 128.952 272.456 128.185 272.456C127.417 272.456 126.792 272.711 126.309 273.223C125.797 273.706 125.542 274.317 125.542 275.056C125.542 275.795 125.797 276.42 126.309 276.932C126.792 277.415 127.417 277.656 128.185 277.656C128.952 277.656 129.592 277.415 130.103 276.932C130.586 276.42 130.828 275.795 130.828 275.056Z" fill="#2455F0"/>
<path d="M419.021 38.5941L419.021 36.2068L396.086 22.0109L396.086 52.7899L419.021 38.5941ZM413.522 37.4004L400.221 45.4149L400.221 29.3433L413.522 37.4004ZM400.818 15.659C400.818 14.9201 400.576 14.3091 400.093 13.8259C399.582 13.3144 398.942 13.0586 398.175 13.0586C397.407 13.0586 396.782 13.3144 396.299 13.8259C395.787 14.3091 395.532 14.9201 395.532 15.659C395.532 16.398 395.787 17.0232 396.299 17.5348C396.782 18.0179 397.407 18.2595 398.175 18.2595C398.942 18.2595 399.582 18.0179 400.093 17.5348C400.576 17.0232 400.818 16.398 400.818 15.659Z" fill="#2455F0"/>
<path d="M419.021 209.949L419.021 207.561L396.086 193.365L396.086 224.144L419.021 209.949ZM413.522 208.755L400.221 216.769L400.221 200.698L413.522 208.755ZM400.818 187.014C400.818 186.275 400.576 185.664 400.093 185.18C399.582 184.669 398.942 184.413 398.175 184.413C397.407 184.413 396.782 184.669 396.299 185.18C395.787 185.664 395.532 186.275 395.532 187.014C395.532 187.752 395.787 188.378 396.299 188.889C396.782 189.372 397.407 189.614 398.175 189.614C398.942 189.614 399.582 189.372 400.093 188.889C400.576 188.378 400.818 187.752 400.818 187.014Z" fill="#2455F0"/>
<path d="M419.021 124.641L419.021 122.254L396.086 108.058L396.086 138.837L419.021 124.641ZM413.522 123.448L400.221 131.462L400.221 115.391L413.522 123.448ZM400.818 101.706C400.818 100.967 400.576 100.356 400.093 99.8733C399.582 99.3617 398.942 99.106 398.175 99.106C397.407 99.106 396.782 99.3617 396.299 99.8733C395.787 100.356 395.532 100.967 395.532 101.706C395.532 102.445 395.787 103.071 396.299 103.582C396.782 104.065 397.407 104.307 398.175 104.307C398.942 104.307 399.582 104.065 400.093 103.582C400.576 103.071 400.818 102.445 400.818 101.706Z" fill="#2455F0"/>
<path d="M419.021 295.996L419.021 293.609L396.086 279.413L396.086 310.192L419.021 295.996ZM413.522 294.802L400.221 302.817L400.221 286.745L413.522 294.802ZM400.818 273.061C400.818 272.322 400.576 271.711 400.093 271.228C399.582 270.716 398.942 270.46 398.175 270.46C397.407 270.46 396.782 270.716 396.299 271.228C395.787 271.711 395.532 272.322 395.532 273.061C395.532 273.8 395.787 274.425 396.299 274.937C396.782 275.42 397.407 275.661 398.175 275.661C398.942 275.661 399.582 275.42 400.093 274.937C400.576 274.425 400.818 273.8 400.818 273.061Z" fill="#2455F0"/>
<path d="M284.026 39.1576L284.026 36.7703L261.091 22.5744L261.091 53.3534L284.026 39.1576ZM278.527 37.9639L265.226 45.9784L265.226 29.9068L278.527 37.9639ZM265.823 16.2225C265.823 15.4836 265.581 14.8726 265.098 14.3894C264.587 13.8779 263.947 13.6221 263.18 13.6221C262.412 13.6221 261.787 13.8779 261.304 14.3894C260.792 14.8726 260.537 15.4836 260.537 16.2225C260.537 16.9614 260.792 17.5867 261.304 18.0982C261.787 18.5814 262.412 18.823 263.18 18.823C263.947 18.823 264.587 18.5814 265.098 18.0982C265.581 17.5867 265.823 16.9614 265.823 16.2225Z" fill="#2455F0"/>
<path d="M284.026 210.512L284.026 208.125L261.091 193.929L261.091 224.708L284.026 210.512ZM278.527 209.318L265.226 217.333L265.226 201.261L278.527 209.318ZM265.823 187.577C265.823 186.838 265.581 186.227 265.098 185.744C264.587 185.232 263.947 184.977 263.18 184.977C262.412 184.977 261.787 185.232 261.304 185.744C260.792 186.227 260.537 186.838 260.537 187.577C260.537 188.316 260.792 188.941 261.304 189.453C261.787 189.936 262.412 190.177 263.18 190.177C263.947 190.177 264.587 189.936 265.098 189.453C265.581 188.941 265.823 188.316 265.823 187.577Z" fill="#2455F0"/>
<path d="M284.026 125.204L284.026 122.817L261.091 108.621L261.091 139.4L284.026 125.204ZM278.527 124.011L265.226 132.025L265.226 115.954L278.527 124.011ZM265.823 102.269C265.823 101.53 265.581 100.919 265.098 100.436C264.587 99.9247 263.947 99.6689 263.18 99.6689C262.412 99.6689 261.787 99.9247 261.304 100.436C260.792 100.919 260.537 101.53 260.537 102.269C260.537 103.008 260.792 103.634 261.304 104.145C261.787 104.628 262.412 104.87 263.18 104.87C263.947 104.87 264.587 104.628 265.098 104.145C265.581 103.634 265.823 103.008 265.823 102.269Z" fill="#2455F0"/>
<path d="M284.026 296.559L284.026 294.172L261.091 279.976L261.091 310.755L284.026 296.559ZM278.527 295.365L265.226 303.38L265.226 287.308L278.527 295.365ZM265.823 273.624C265.823 272.885 265.581 272.274 265.098 271.791C264.587 271.279 263.947 271.023 263.18 271.023C262.412 271.023 261.787 271.279 261.304 271.791C260.792 272.274 260.537 272.885 260.537 273.624C260.537 274.363 260.792 274.988 261.304 275.5C261.787 275.983 262.412 276.224 263.18 276.224C263.947 276.224 264.587 275.983 265.098 275.5C265.581 274.988 265.823 274.363 265.823 273.624Z" fill="#2455F0"/>
<path d="M554.016 37.1624L554.016 34.7752L531.081 20.5793L531.081 51.3583L554.016 37.1624ZM548.517 35.9688L535.216 43.9833L535.216 27.9117L548.517 35.9688ZM535.813 14.2274C535.813 13.4885 535.571 12.8774 535.088 12.3943C534.577 11.8827 533.937 11.627 533.17 11.627C532.403 11.627 531.777 11.8827 531.294 12.3943C530.783 12.8774 530.527 13.4885 530.527 14.2274C530.527 14.9663 530.783 15.5916 531.294 16.1031C531.777 16.5863 532.403 16.8278 533.17 16.8278C533.937 16.8278 534.577 16.5863 535.088 16.1031C535.571 15.5916 535.813 14.9663 535.813 14.2274Z" fill="#2455F0"/>
<path d="M554.016 208.517L554.016 206.13L531.081 191.934L531.081 222.713L554.016 208.517ZM548.517 207.323L535.216 215.338L535.216 199.266L548.517 207.323ZM535.813 185.582C535.813 184.843 535.571 184.232 535.088 183.749C534.577 183.237 533.937 182.981 533.17 182.981C532.403 182.981 531.777 183.237 531.294 183.749C530.783 184.232 530.527 184.843 530.527 185.582C530.527 186.321 530.783 186.946 531.294 187.458C531.777 187.941 532.403 188.182 533.17 188.182C533.937 188.182 534.577 187.941 535.088 187.458C535.571 186.946 535.813 186.321 535.813 185.582Z" fill="#2455F0"/>
<path d="M554.016 123.21L554.016 120.823L531.081 106.627L531.081 137.406L554.016 123.21ZM548.517 122.016L535.216 130.031L535.216 113.959L548.517 122.016ZM535.813 100.275C535.813 99.5358 535.571 98.9248 535.088 98.4417C534.577 97.9301 533.937 97.6743 533.17 97.6743C532.403 97.6743 531.777 97.9301 531.294 98.4417C530.783 98.9248 530.527 99.5358 530.527 100.275C530.527 101.014 530.783 101.639 531.294 102.15C531.777 102.634 532.403 102.875 533.17 102.875C533.937 102.875 534.577 102.634 535.088 102.15C535.571 101.639 535.813 101.014 535.813 100.275Z" fill="#2455F0"/>
<path d="M554.016 294.564L554.016 292.177L531.081 277.981L531.081 308.76L554.016 294.564ZM548.517 293.371L535.216 301.385L535.216 285.314L548.517 293.371ZM535.813 271.629C535.813 270.89 535.571 270.279 535.088 269.796C534.577 269.285 533.937 269.029 533.17 269.029C532.403 269.029 531.777 269.285 531.294 269.796C530.783 270.279 530.527 270.89 530.527 271.629C530.527 272.368 530.783 272.993 531.294 273.505C531.777 273.988 532.403 274.23 533.17 274.23C533.937 274.23 534.577 273.988 535.088 273.505C535.571 272.993 535.813 272.368 535.813 271.629Z" fill="#2455F0"/>
</svg>
