<svg width="1071" height="721" viewBox="0 0 1071 721" fill="none" xmlns="http://www.w3.org/2000/svg">
<path d="M289.603 0.521271L289.603 90.5498L275.485 90.5498L236.981 46.4358L236.981 90.5498L173.923 90.5498L173.923 0.521281L227.355 0.521276L265.859 44.6353L265.859 0.521273L289.603 0.521271Z" fill="#2455F0"/>
<path d="M173.924 0.521272L173.924 90.5498L159.806 90.5498L121.303 46.4358L121.303 90.5498L58.2447 90.5498L58.2447 0.521282L111.677 0.521278L150.18 44.6353L150.18 0.521274L173.924 0.521272Z" fill="#2455F0"/>
<path d="M145.016 90.5506L145.016 180.579L130.898 180.579L92.3943 136.465L92.3943 180.579L29.3365 180.579L29.3365 90.5506L82.7685 90.5506L121.272 134.665L121.272 90.5506L145.016 90.5506Z" fill="#2455F0"/>
<path d="M289.604 360.635L289.604 450.663L275.486 450.663L236.982 406.549L236.982 450.663L173.924 450.663L173.924 360.635L227.356 360.635L265.86 404.749L265.86 360.635L289.604 360.635Z" fill="#2455F0"/>
<path d="M636.64 0.521272L636.64 90.5498L622.522 90.5498L584.018 46.4358L584.018 90.5498L520.961 90.5498L520.961 0.521282L574.392 0.521278L612.896 44.6353L612.896 0.521274L636.64 0.521272Z" fill="#2455F0"/>
<path d="M636.64 360.635L636.64 450.663L622.522 450.663L584.018 406.549L584.018 450.663L520.961 450.663L520.961 360.635L574.392 360.635L612.896 404.749L612.896 360.635L636.64 360.635Z" fill="#2455F0"/>
<path d="M173.924 360.635L173.924 450.663L159.806 450.663L121.303 406.549L121.303 450.663L58.2447 450.663L58.2447 360.635L111.677 360.635L150.18 404.749L150.18 360.635L173.924 360.635Z" fill="#2455F0"/>
<path d="M145.014 450.676L145.014 540.704L130.896 540.704L92.3924 496.59L92.3924 540.704L29.3345 540.704L29.3345 450.676L82.7665 450.676L121.27 494.79L121.27 450.676L145.014 450.676Z" fill="#2455F0"/>
<path d="M116.084 540.704L116.084 630.732L101.966 630.732L63.4627 586.618L63.4627 630.732L0.404851 630.732L0.404843 540.704L53.8368 540.704L92.3402 584.818L92.3402 540.704L116.084 540.704Z" fill="#2455F0"/>
<path d="M925.837 540.704L925.837 630.732L911.719 630.732L873.216 586.618L873.216 630.732L810.158 630.732L810.158 540.704L863.59 540.704L902.093 584.818L902.093 540.704L925.837 540.704Z" fill="#2455F0"/>
<path d="M896.927 630.732L896.927 720.761L882.809 720.761L844.305 676.647L844.305 720.761L781.248 720.761L781.248 630.732L834.68 630.732L873.183 674.846L873.183 630.732L896.927 630.732Z" fill="#2455F0"/>
<path d="M954.768 450.676L954.768 540.704L940.65 540.704L902.146 496.59L902.146 540.704L839.088 540.704L839.088 450.676L892.52 450.676L931.024 494.79L931.024 450.676L954.768 450.676Z" fill="#2455F0"/>
<path d="M896.927 270.606L896.927 360.635L882.809 360.635L844.305 316.521L844.305 360.635L781.248 360.635L781.248 270.606L834.68 270.606L873.183 314.72L873.183 270.606L896.927 270.606Z" fill="#2455F0"/>
<path d="M925.837 180.579L925.837 270.607L911.719 270.607L873.216 226.493L873.216 270.607L810.158 270.607L810.158 180.579L863.59 180.579L902.093 224.693L902.093 180.579L925.837 180.579Z" fill="#2455F0"/>
<path d="M954.768 90.5506L954.768 180.579L940.65 180.579L902.146 136.465L902.146 180.579L839.088 180.579L839.088 90.5506L892.52 90.5506L931.024 134.665L931.024 90.5506L954.768 90.5506Z" fill="#2455F0"/>
<path d="M1070.45 90.5506L1070.45 180.579L1056.33 180.579L1017.83 136.465L1017.83 180.579L954.768 180.579L954.768 90.5506L1008.2 90.5506L1046.7 134.665L1046.7 90.5506L1070.45 90.5506Z" fill="#2455F0"/>
<path d="M983.677 360.635L983.677 450.663L969.559 450.663L931.055 406.549L931.055 450.663L867.998 450.663L867.998 360.635L921.43 360.635L959.933 404.749L959.933 360.635L983.677 360.635Z" fill="#2455F0"/>
<path d="M1012.61 270.607L1012.61 360.636L998.49 360.636L959.986 316.522L959.986 360.636L896.928 360.636L896.928 270.607L950.36 270.607L988.864 314.721L988.864 270.607L1012.61 270.607Z" fill="#2455F0"/>
<path d="M1041.52 180.579L1041.52 270.607L1027.4 270.607L988.896 226.493L988.896 270.607L925.838 270.607L925.838 180.579L979.27 180.579L1017.77 224.693L1017.77 180.579L1041.52 180.579Z" fill="#2455F0"/>
<path d="M983.677 0.521272L983.677 90.5498L969.559 90.5498L931.055 46.4358L931.055 90.5498L867.998 90.5498L867.998 0.521282L921.43 0.521278L959.933 44.6353L959.933 0.521274L983.677 0.521272Z" fill="#2455F0"/>
<path d="M231.764 180.578L231.764 270.606L217.646 270.606L179.142 226.492L179.142 270.606L116.085 270.606L116.085 180.578L169.517 180.578L208.02 224.692L208.02 180.578L231.764 180.578Z" fill="#2455F0"/>
<path d="M231.764 540.704L231.764 630.732L217.646 630.732L179.142 586.618L179.142 630.732L116.085 630.732L116.085 540.704L169.517 540.704L208.02 584.818L208.02 540.704L231.764 540.704Z" fill="#2455F0"/>
<path d="M578.8 180.578L578.8 270.606L564.682 270.606L526.178 226.492L526.178 270.606L463.121 270.606L463.121 180.578L516.553 180.578L555.056 224.692L555.056 180.578L578.8 180.578Z" fill="#2455F0"/>
<path d="M578.8 540.704L578.8 630.732L564.682 630.732L526.178 586.618L526.178 630.732L463.121 630.732L463.121 540.704L516.553 540.704L555.056 584.818L555.056 540.704L578.8 540.704Z" fill="#2455F0"/>
<path d="M405.282 0.521272L405.282 90.5498L391.164 90.5498L352.661 46.4358L352.661 90.5498L289.603 90.5498L289.603 0.521282L343.035 0.521278L381.538 44.6353L381.538 0.521274L405.282 0.521272Z" fill="#2455F0"/>
<path d="M405.282 360.635L405.282 450.663L391.164 450.663L352.661 406.549L352.661 450.663L289.603 450.663L289.603 360.635L343.035 360.635L381.538 404.749L381.538 360.635L405.282 360.635Z" fill="#2455F0"/>
<path d="M752.318 0.521272L752.318 90.5498L738.2 90.5498L699.697 46.4358L699.697 90.5498L636.639 90.5498L636.639 0.521282L690.071 0.521278L728.575 44.6353L728.575 0.521274L752.318 0.521272Z" fill="#2455F0"/>
<path d="M752.318 360.635L752.318 450.663L738.2 450.663L699.697 406.549L699.697 450.663L636.639 450.663L636.639 360.635L690.071 360.635L728.575 404.749L728.575 360.635L752.318 360.635Z" fill="#2455F0"/>
<path d="M347.443 180.578L347.443 270.606L333.325 270.606L294.822 226.492L294.822 270.606L231.764 270.606L231.764 180.578L285.196 180.578L323.7 224.692L323.7 180.578L347.443 180.578Z" fill="#2455F0"/>
<path d="M347.443 540.704L347.443 630.732L333.325 630.732L294.822 586.618L294.822 630.732L231.764 630.732L231.764 540.704L285.196 540.704L323.7 584.818L323.7 540.704L347.443 540.704Z" fill="#2455F0"/>
<path d="M694.479 180.578L694.479 270.606L680.361 270.606L641.857 226.492L641.857 270.606L578.799 270.606L578.799 180.578L632.231 180.578L670.735 224.692L670.735 180.578L694.479 180.578Z" fill="#2455F0"/>
<path d="M694.479 540.704L694.479 630.732L680.361 630.732L641.857 586.618L641.857 630.732L578.799 630.732L578.799 540.704L632.231 540.704L670.735 584.818L670.735 540.704L694.479 540.704Z" fill="#2455F0"/>
<path d="M520.96 0.521272L520.96 90.5498L506.842 90.5498L468.339 46.4358L468.339 90.5498L405.281 90.5498L405.281 0.521282L458.713 0.521278L497.216 44.6353L497.216 0.521274L520.96 0.521272Z" fill="#2455F0"/>
<path d="M520.96 360.635L520.96 450.663L506.842 450.663L468.339 406.549L468.339 450.663L405.281 450.663L405.281 360.635L458.713 360.635L497.216 404.749L497.216 360.635L520.96 360.635Z" fill="#2455F0"/>
<path d="M867.997 0.521272L867.997 90.5498L853.879 90.5498L815.376 46.4358L815.376 90.5498L752.318 90.5498L752.318 0.521282L805.75 0.521278L844.253 44.6353L844.253 0.521274L867.997 0.521272Z" fill="#2455F0"/>
<path d="M867.997 360.635L867.997 450.663L853.879 450.663L815.376 406.549L815.376 450.663L752.318 450.663L752.318 360.635L805.75 360.635L844.253 404.749L844.253 360.635L867.997 360.635Z" fill="#2455F0"/>
<path d="M463.122 180.578L463.122 270.606L449.004 270.606L410.501 226.492L410.501 270.606L347.443 270.606L347.443 180.578L400.875 180.578L439.378 224.692L439.378 180.578L463.122 180.578Z" fill="#2455F0"/>
<path d="M463.122 540.704L463.122 630.732L449.004 630.732L410.501 586.618L410.501 630.732L347.443 630.732L347.443 540.704L400.875 540.704L439.378 584.818L439.378 540.704L463.122 540.704Z" fill="#2455F0"/>
<path d="M810.157 180.578L810.157 270.606L796.039 270.606L757.536 226.492L757.536 270.606L694.478 270.606L694.478 180.578L747.91 180.578L786.413 224.692L786.413 180.578L810.157 180.578Z" fill="#2455F0"/>
<path d="M810.157 540.704L810.157 630.732L796.039 630.732L757.536 586.618L757.536 630.732L694.478 630.732L694.478 540.704L747.91 540.704L786.413 584.818L786.413 540.704L810.157 540.704Z" fill="#2455F0"/>
<path d="M492.052 90.5496L492.052 180.578L477.934 180.578L439.43 136.464L439.43 180.578L376.373 180.578L376.373 90.5496L429.805 90.5496L468.308 134.664L468.308 90.5496L492.052 90.5496Z" fill="#2455F0"/>
<path d="M492.052 450.676L492.052 540.704L477.934 540.704L439.43 496.59L439.43 540.704L376.373 540.704L376.373 450.676L429.805 450.676L468.308 494.79L468.308 450.676L492.052 450.676Z" fill="#2455F0"/>
<path d="M839.088 90.5496L839.088 180.578L824.97 180.578L786.467 136.464L786.467 180.578L723.409 180.578L723.409 90.5496L776.841 90.5496L815.344 134.664L815.344 90.5496L839.088 90.5496Z" fill="#2455F0"/>
<path d="M839.088 450.676L839.088 540.704L824.97 540.704L786.467 496.59L786.467 540.704L723.409 540.704L723.409 450.676L776.841 450.676L815.344 494.79L815.344 450.676L839.088 450.676Z" fill="#2455F0"/>
<path d="M434.213 270.606L434.213 360.635L420.095 360.635L381.592 316.521L381.592 360.635L318.534 360.635L318.534 270.606L371.966 270.606L410.469 314.72L410.469 270.606L434.213 270.606Z" fill="#2455F0"/>
<path d="M434.213 630.732L434.213 720.761L420.095 720.761L381.592 676.647L381.592 720.761L318.534 720.761L318.534 630.732L371.966 630.732L410.469 674.846L410.469 630.732L434.213 630.732Z" fill="#2455F0"/>
<path d="M781.248 270.606L781.248 360.635L767.13 360.635L728.627 316.521L728.627 360.635L665.569 360.635L665.569 270.606L719.001 270.606L757.504 314.72L757.504 270.606L781.248 270.606Z" fill="#2455F0"/>
<path d="M781.248 630.732L781.248 720.761L767.13 720.761L728.627 676.647L728.627 720.761L665.569 720.761L665.569 630.732L719.001 630.732L757.504 674.846L757.504 630.732L781.248 630.732Z" fill="#2455F0"/>
<path d="M376.373 90.5496L376.373 180.578L362.255 180.578L323.752 136.464L323.752 180.578L260.694 180.578L260.694 90.5496L314.126 90.5496L352.629 134.664L352.629 90.5496L376.373 90.5496Z" fill="#2455F0"/>
<path d="M376.373 450.676L376.373 540.704L362.255 540.704L323.752 496.59L323.752 540.704L260.694 540.704L260.694 450.676L314.126 450.676L352.629 494.79L352.629 450.676L376.373 450.676Z" fill="#2455F0"/>
<path d="M723.409 90.5496L723.409 180.578L709.291 180.578L670.788 136.464L670.788 180.578L607.73 180.578L607.73 90.5496L661.162 90.5496L699.665 134.664L699.665 90.5496L723.409 90.5496Z" fill="#2455F0"/>
<path d="M723.409 450.676L723.409 540.704L709.291 540.704L670.788 496.59L670.788 540.704L607.73 540.704L607.73 450.676L661.162 450.676L699.665 494.79L699.665 450.676L723.409 450.676Z" fill="#2455F0"/>
<path d="M318.534 270.606L318.534 360.635L304.416 360.635L265.913 316.521L265.913 360.635L202.855 360.635L202.855 270.606L256.287 270.606L294.79 314.72L294.79 270.606L318.534 270.606Z" fill="#2455F0"/>
<path d="M318.534 630.732L318.534 720.761L304.416 720.761L265.913 676.647L265.913 720.761L202.855 720.761L202.855 630.732L256.287 630.732L294.79 674.846L294.79 630.732L318.534 630.732Z" fill="#2455F0"/>
<path d="M665.569 270.606L665.569 360.635L651.451 360.635L612.948 316.521L612.948 360.635L549.89 360.635L549.89 270.606L603.322 270.606L641.826 314.72L641.826 270.606L665.569 270.606Z" fill="#2455F0"/>
<path d="M665.569 630.732L665.569 720.761L651.451 720.761L612.948 676.647L612.948 720.761L549.89 720.761L549.89 630.732L603.322 630.732L641.826 674.846L641.826 630.732L665.569 630.732Z" fill="#2455F0"/>
<path d="M260.694 90.5496L260.694 180.578L246.576 180.578L208.073 136.464L208.073 180.578L145.015 180.578L145.015 90.5496L198.447 90.5496L236.951 134.664L236.951 90.5496L260.694 90.5496Z" fill="#2455F0"/>
<path d="M260.694 450.676L260.694 540.704L246.576 540.704L208.073 496.59L208.073 540.704L145.015 540.704L145.015 450.676L198.447 450.676L236.951 494.79L236.951 450.676L260.694 450.676Z" fill="#2455F0"/>
<path d="M607.73 90.5496L607.73 180.578L593.613 180.578L555.109 136.464L555.109 180.578L492.051 180.578L492.051 90.5496L545.483 90.5496L583.987 134.664L583.987 90.5496L607.73 90.5496Z" fill="#2455F0"/>
<path d="M607.73 450.676L607.73 540.704L593.613 540.704L555.109 496.59L555.109 540.704L492.051 540.704L492.051 450.676L545.483 450.676L583.987 494.79L583.987 450.676L607.73 450.676Z" fill="#2455F0"/>
<path d="M202.854 270.606L202.854 360.635L188.737 360.635L150.233 316.521L150.233 360.635L87.1754 360.635L87.1754 270.606L140.607 270.606L179.111 314.72L179.111 270.606L202.854 270.606Z" fill="#2455F0"/>
<path d="M202.854 630.732L202.854 720.761L188.737 720.761L150.233 676.647L150.233 720.761L87.1754 720.761L87.1754 630.732L140.607 630.732L179.111 674.846L179.111 630.732L202.854 630.732Z" fill="#2455F0"/>
<path d="M549.891 270.606L549.891 360.635L535.773 360.635L497.269 316.521L497.269 360.635L434.211 360.635L434.211 270.606L487.643 270.606L526.147 314.72L526.147 270.606L549.891 270.606Z" fill="#2455F0"/>
<path d="M549.891 630.732L549.891 720.761L535.773 720.761L497.269 676.647L497.269 720.761L434.211 720.761L434.211 630.732L487.643 630.732L526.147 674.846L526.147 630.732L549.891 630.732Z" fill="#2455F0"/>
</svg>
